<mxfile host="Electron" agent="Mozilla/5.0 (Windows NT 10.0; Win64; x64) AppleWebKit/537.36 (KHTML, like Gecko) draw.io/24.4.6 Chrome/124.0.6367.207 Electron/30.0.6 Safari/537.36" modified="2024-09-04T09:49:32.141Z" etag="YymsxCh4xvJw4hImpu4e" version="24.4.6" type="device" pages="4">
  <diagram name="UserManagement" id="03018318-947c-dd8e-b7a3-06fadd420f32">
    <mxGraphModel dx="1235" dy="722" grid="1" gridSize="10" guides="1" tooltips="1" connect="1" arrows="1" fold="1" page="1" pageScale="1" pageWidth="1100" pageHeight="850" background="none" math="0" shadow="0">
      <root>
        <mxCell id="0" />
        <mxCell id="1" parent="0" />
        <mxCell id="MbzPR43FBCwSQIJfIcqY-3" value="" style="whiteSpace=wrap;html=1;rounded=0;shadow=0;labelBackgroundColor=none;strokeColor=#000000;strokeWidth=1;fillColor=none;fontFamily=Verdana;fontSize=12;fontColor=#000000;align=center;comic=1;movable=1;resizable=1;rotatable=1;deletable=1;editable=1;locked=0;connectable=1;" parent="1" vertex="1">
          <mxGeometry x="340" y="3620" width="740" height="580" as="geometry" />
        </mxCell>
        <mxCell id="MbzPR43FBCwSQIJfIcqY-28" value="" style="whiteSpace=wrap;html=1;rounded=0;shadow=0;labelBackgroundColor=none;strokeWidth=1;fillColor=none;fontFamily=Verdana;fontSize=12;align=center;comic=1;movable=1;resizable=1;rotatable=1;deletable=1;editable=1;locked=0;connectable=1;" parent="1" vertex="1">
          <mxGeometry x="350" y="3670" width="400" height="510" as="geometry" />
        </mxCell>
        <mxCell id="GfoDm_0svsekAU_-suc4-1" value="" style="whiteSpace=wrap;html=1;rounded=0;shadow=0;labelBackgroundColor=none;strokeColor=#000000;strokeWidth=1;fillColor=none;fontFamily=Verdana;fontSize=12;fontColor=#000000;align=center;comic=1;movable=1;resizable=1;rotatable=1;deletable=1;editable=1;locked=0;connectable=1;" parent="1" vertex="1">
          <mxGeometry x="20" y="2660" width="1060" height="730" as="geometry" />
        </mxCell>
        <mxCell id="GfoDm_0svsekAU_-suc4-58" value="" style="whiteSpace=wrap;html=1;rounded=0;shadow=0;labelBackgroundColor=none;strokeWidth=1;fillColor=none;fontFamily=Verdana;fontSize=12;align=center;comic=1;" parent="1" vertex="1">
          <mxGeometry x="31" y="2820" width="200" height="505" as="geometry" />
        </mxCell>
        <mxCell id="677b7b8949515195-1" value="" style="whiteSpace=wrap;html=1;rounded=0;shadow=0;labelBackgroundColor=none;strokeColor=#000000;strokeWidth=1;fillColor=none;fontFamily=Verdana;fontSize=12;fontColor=#000000;align=center;comic=1;" parent="1" vertex="1">
          <mxGeometry x="20" y="110" width="1060" height="720" as="geometry" />
        </mxCell>
        <mxCell id="677b7b8949515195-2" value="LOGO" style="whiteSpace=wrap;html=1;rounded=0;shadow=0;labelBackgroundColor=none;strokeWidth=1;fontFamily=Verdana;fontSize=28;align=center;comic=1;" parent="1" vertex="1">
          <mxGeometry x="30" y="120" width="190" height="50" as="geometry" />
        </mxCell>
        <mxCell id="677b7b8949515195-4" value="[Bibliothek]" style="text;html=1;points=[];align=left;verticalAlign=top;spacingTop=-4;fontSize=14;fontFamily=Verdana;fontStyle=4" parent="1" vertex="1">
          <mxGeometry x="600" y="130" width="60" height="20" as="geometry" />
        </mxCell>
        <mxCell id="677b7b8949515195-5" value="[Einzelspieler]" style="text;html=1;points=[];align=left;verticalAlign=top;spacingTop=-4;fontSize=14;fontFamily=Verdana" parent="1" vertex="1">
          <mxGeometry x="690" y="130" width="60" height="20" as="geometry" />
        </mxCell>
        <mxCell id="677b7b8949515195-6" value="[Mehrspieler]" style="text;html=1;points=[];align=left;verticalAlign=top;spacingTop=-4;fontSize=14;fontFamily=Verdana" parent="1" vertex="1">
          <mxGeometry x="800" y="130" width="60" height="20" as="geometry" />
        </mxCell>
        <mxCell id="677b7b8949515195-7" value="[Profil]" style="text;html=1;points=[];align=left;verticalAlign=top;spacingTop=-4;fontSize=14;fontFamily=Verdana" parent="1" vertex="1">
          <mxGeometry x="910" y="130" width="60" height="20" as="geometry" />
        </mxCell>
        <mxCell id="677b7b8949515195-9" value="" style="line;strokeWidth=1;html=1;rounded=0;shadow=0;labelBackgroundColor=none;fillColor=none;fontFamily=Verdana;fontSize=14;fontColor=#000000;align=center;comic=1;" parent="1" vertex="1">
          <mxGeometry x="20" y="180" width="1060" height="10" as="geometry" />
        </mxCell>
        <mxCell id="677b7b8949515195-16" value="" style="verticalLabelPosition=bottom;shadow=0;dashed=0;align=center;html=1;verticalAlign=top;strokeWidth=1;shape=mxgraph.mockup.graphics.simpleIcon;strokeColor=#999999;rounded=0;labelBackgroundColor=none;fontFamily=Verdana;fontSize=14;fontColor=#000000;comic=1;" parent="1" vertex="1">
          <mxGeometry x="260" y="240" width="800" height="580" as="geometry" />
        </mxCell>
        <mxCell id="n2YtKvLNBDBYEo97HnMF-3" value="[Logout]" style="text;html=1;points=[];align=left;verticalAlign=top;spacingTop=-4;fontSize=14;fontFamily=Verdana" parent="1" vertex="1">
          <mxGeometry x="970" y="130" width="60" height="20" as="geometry" />
        </mxCell>
        <mxCell id="n2YtKvLNBDBYEo97HnMF-73" value="" style="text;html=1;align=left;verticalAlign=middle;whiteSpace=wrap;rounded=0;spacing=2;strokeColor=default;" parent="1" vertex="1">
          <mxGeometry x="20" y="50" width="180" height="40" as="geometry" />
        </mxCell>
        <mxCell id="n2YtKvLNBDBYEo97HnMF-74" value="Die Landing Page ist die Bibliothek&amp;nbsp;" style="text;html=1;align=center;verticalAlign=middle;whiteSpace=wrap;rounded=0;strokeColor=default;" parent="1" vertex="1">
          <mxGeometry x="210" y="10" width="430" height="80" as="geometry" />
        </mxCell>
        <mxCell id="n2YtKvLNBDBYEo97HnMF-75" value="Navigation" style="text;html=1;align=center;verticalAlign=middle;whiteSpace=wrap;rounded=0;textShadow=0;strokeColor=default;" parent="1" vertex="1">
          <mxGeometry x="660" y="10" width="420" height="80" as="geometry" />
        </mxCell>
        <mxCell id="n2YtKvLNBDBYEo97HnMF-76" value="&lt;pre&gt;&lt;span style=&quot;color: rgb(240, 240, 240); font-family: Helvetica; font-style: normal; font-variant-ligatures: normal; font-variant-caps: normal; letter-spacing: normal; orphans: 2; text-align: left; text-indent: 0px; text-transform: none; widows: 2; word-spacing: 0px; -webkit-text-stroke-width: 0px; white-space: normal; background-color: rgb(27, 29, 30); text-decoration-thickness: initial; text-decoration-style: initial; text-decoration-color: initial; float: none; display: inline !important;&quot;&gt;&lt;font style=&quot;font-size: 15px;&quot;&gt;Basisarchitektur&lt;/font&gt;&lt;/span&gt;&lt;/pre&gt;" style="text;whiteSpace=wrap;html=1;strokeColor=default;labelPosition=center;verticalLabelPosition=middle;align=center;verticalAlign=middle;" parent="1" vertex="1">
          <mxGeometry x="20" y="10" width="180" height="40" as="geometry" />
        </mxCell>
        <mxCell id="n2YtKvLNBDBYEo97HnMF-136" value="" style="whiteSpace=wrap;html=1;rounded=0;shadow=0;labelBackgroundColor=none;strokeColor=#000000;strokeWidth=1;fillColor=none;fontFamily=Verdana;fontSize=12;fontColor=#000000;align=center;comic=1;" parent="1" vertex="1">
          <mxGeometry x="20" y="1821" width="1060" height="720" as="geometry" />
        </mxCell>
        <mxCell id="n2YtKvLNBDBYEo97HnMF-137" value="LOGO" style="whiteSpace=wrap;html=1;rounded=0;shadow=0;labelBackgroundColor=none;strokeWidth=1;fontFamily=Verdana;fontSize=28;align=center;comic=1;" parent="1" vertex="1">
          <mxGeometry x="38" y="1830" width="190" height="50" as="geometry" />
        </mxCell>
        <mxCell id="n2YtKvLNBDBYEo97HnMF-139" value="[Bibliothek]" style="text;html=1;points=[];align=left;verticalAlign=top;spacingTop=-4;fontSize=14;fontFamily=Verdana;fontStyle=0" parent="1" vertex="1">
          <mxGeometry x="880" y="1830" width="60" height="20" as="geometry" />
        </mxCell>
        <mxCell id="n2YtKvLNBDBYEo97HnMF-141" value="" style="line;strokeWidth=1;html=1;rounded=0;shadow=0;labelBackgroundColor=none;fillColor=none;fontFamily=Verdana;fontSize=14;fontColor=#000000;align=center;comic=1;" parent="1" vertex="1">
          <mxGeometry x="20" y="1891" width="1060" height="10" as="geometry" />
        </mxCell>
        <mxCell id="n2YtKvLNBDBYEo97HnMF-142" value="&lt;div&gt;Rolle: loged out&lt;/div&gt;" style="text;html=1;align=left;verticalAlign=middle;whiteSpace=wrap;rounded=0;spacing=2;strokeColor=default;" parent="1" vertex="1">
          <mxGeometry x="20" y="1750" width="180" height="40" as="geometry" />
        </mxCell>
        <mxCell id="n2YtKvLNBDBYEo97HnMF-143" value="[Login]" style="text;html=1;points=[];align=left;verticalAlign=top;spacingTop=-4;fontSize=14;fontFamily=Verdana;fontStyle=4" parent="1" vertex="1">
          <mxGeometry x="970" y="1830" width="60" height="20" as="geometry" />
        </mxCell>
        <mxCell id="n2YtKvLNBDBYEo97HnMF-144" value="Hier kann sich ein neuer Benutzer registrieren.&amp;nbsp;" style="text;html=1;align=center;verticalAlign=middle;whiteSpace=wrap;rounded=0;strokeColor=default;" parent="1" vertex="1">
          <mxGeometry x="210" y="1710" width="430" height="80" as="geometry" />
        </mxCell>
        <mxCell id="n2YtKvLNBDBYEo97HnMF-145" value="Navigation:&lt;div&gt;&lt;ul style=&quot;font-size: 10px;&quot;&gt;&lt;li&gt;UF1 - Login undRegistieren&lt;/li&gt;&lt;/ul&gt;&lt;/div&gt;" style="text;html=1;align=left;verticalAlign=top;whiteSpace=wrap;rounded=0;textShadow=0;strokeColor=default;" parent="1" vertex="1">
          <mxGeometry x="660" y="1710" width="420" height="80" as="geometry" />
        </mxCell>
        <mxCell id="n2YtKvLNBDBYEo97HnMF-146" value="&lt;pre&gt;&lt;span style=&quot;font-family: Helvetica; white-space: normal;&quot;&gt;&lt;font style=&quot;font-size: 15px;&quot;&gt;View: Registieren&lt;/font&gt;&lt;/span&gt;&lt;/pre&gt;" style="text;whiteSpace=wrap;html=1;strokeColor=default;verticalAlign=middle;labelPosition=center;verticalLabelPosition=middle;align=center;" parent="1" vertex="1">
          <mxGeometry x="20" y="1710" width="180" height="40" as="geometry" />
        </mxCell>
        <mxCell id="n2YtKvLNBDBYEo97HnMF-147" value="" style="whiteSpace=wrap;html=1;rounded=0;shadow=0;labelBackgroundColor=none;strokeWidth=1;fillColor=none;fontFamily=Verdana;fontSize=12;align=center;comic=1;movable=1;resizable=1;rotatable=1;deletable=1;editable=1;locked=0;connectable=1;" parent="1" vertex="1">
          <mxGeometry x="350" y="1980" width="400" height="470" as="geometry" />
        </mxCell>
        <mxCell id="n2YtKvLNBDBYEo97HnMF-148" value="Benutzername" style="html=1;shadow=0;dashed=0;shape=mxgraph.bootstrap.rect;strokeColor=none;fillColor=none;fontColor=#999999;align=left;spacingLeft=5;whiteSpace=wrap;rounded=0;movable=1;resizable=1;rotatable=1;deletable=1;editable=1;locked=0;connectable=1;fontFamily=Verdana;" parent="1" vertex="1">
          <mxGeometry x="373" y="2005" width="200" height="20" as="geometry" />
        </mxCell>
        <mxCell id="n2YtKvLNBDBYEo97HnMF-149" value="&amp;lt;Benutzername&amp;gt;" style="html=1;shadow=0;dashed=0;shape=mxgraph.bootstrap.rrect;rSize=5;strokeColor=#dddddd;align=left;spacingLeft=10;fontSize=14;whiteSpace=wrap;rounded=0;movable=1;resizable=1;rotatable=1;deletable=1;editable=1;locked=0;connectable=1;fontFamily=Verdana;" parent="1" vertex="1">
          <mxGeometry x="373" y="2025" width="360" height="35" as="geometry" />
        </mxCell>
        <mxCell id="n2YtKvLNBDBYEo97HnMF-150" value="&amp;lt;Passwort&amp;gt;" style="html=1;shadow=0;dashed=0;shape=mxgraph.bootstrap.rrect;rSize=5;strokeColor=#dddddd;align=left;spacingLeft=10;fontSize=14;whiteSpace=wrap;rounded=0;movable=1;resizable=1;rotatable=1;deletable=1;editable=1;locked=0;connectable=1;fontFamily=Verdana;" parent="1" vertex="1">
          <mxGeometry x="370" y="2270" width="360" height="35" as="geometry" />
        </mxCell>
        <mxCell id="n2YtKvLNBDBYEo97HnMF-151" value="Passwort" style="html=1;shadow=0;dashed=0;shape=mxgraph.bootstrap.rect;strokeColor=none;fillColor=none;fontColor=#999999;align=left;spacingLeft=5;whiteSpace=wrap;rounded=0;movable=1;resizable=1;rotatable=1;deletable=1;editable=1;locked=0;connectable=1;fontFamily=Verdana;" parent="1" vertex="1">
          <mxGeometry x="370" y="2250" width="200" height="20" as="geometry" />
        </mxCell>
        <mxCell id="n2YtKvLNBDBYEo97HnMF-153" value="Registrieren" style="html=1;shadow=0;dashed=0;shape=mxgraph.bootstrap.rrect;align=center;rSize=5;strokeColor=none;fillColor=#3D8BCD;fontColor=#ffffff;fontSize=14;whiteSpace=wrap;rounded=0;movable=1;resizable=1;rotatable=1;deletable=1;editable=1;locked=0;connectable=1;fontFamily=Verdana;" parent="1" vertex="1">
          <mxGeometry x="472" y="2410" width="150" height="30" as="geometry" />
        </mxCell>
        <mxCell id="n2YtKvLNBDBYEo97HnMF-154" value="" style="whiteSpace=wrap;html=1;rounded=0;shadow=0;labelBackgroundColor=none;strokeColor=#000000;strokeWidth=1;fillColor=none;fontFamily=Verdana;fontSize=12;fontColor=#000000;align=center;comic=1;" parent="1" vertex="1">
          <mxGeometry x="20" y="960" width="1060" height="720" as="geometry" />
        </mxCell>
        <mxCell id="n2YtKvLNBDBYEo97HnMF-155" value="LOGO" style="whiteSpace=wrap;html=1;rounded=0;shadow=0;labelBackgroundColor=none;strokeWidth=1;fontFamily=Verdana;fontSize=28;align=center;comic=1;" parent="1" vertex="1">
          <mxGeometry x="40" y="980" width="190" height="50" as="geometry" />
        </mxCell>
        <mxCell id="n2YtKvLNBDBYEo97HnMF-157" value="[Bibliothek]" style="text;html=1;points=[];align=left;verticalAlign=top;spacingTop=-4;fontSize=14;fontFamily=Verdana;fontStyle=0" parent="1" vertex="1">
          <mxGeometry x="880" y="980" width="60" height="20" as="geometry" />
        </mxCell>
        <mxCell id="n2YtKvLNBDBYEo97HnMF-159" value="" style="line;strokeWidth=1;html=1;rounded=0;shadow=0;labelBackgroundColor=none;fillColor=none;fontFamily=Verdana;fontSize=14;fontColor=#000000;align=center;comic=1;" parent="1" vertex="1">
          <mxGeometry x="20" y="1040" width="1060" height="10" as="geometry" />
        </mxCell>
        <mxCell id="n2YtKvLNBDBYEo97HnMF-160" value="&lt;div&gt;Rolle: loged out&lt;/div&gt;" style="text;html=1;align=left;verticalAlign=middle;whiteSpace=wrap;rounded=0;spacing=2;strokeColor=default;" parent="1" vertex="1">
          <mxGeometry x="20" y="900" width="180" height="40" as="geometry" />
        </mxCell>
        <mxCell id="n2YtKvLNBDBYEo97HnMF-161" value="[Login]" style="text;html=1;points=[];align=left;verticalAlign=top;spacingTop=-4;fontSize=14;fontFamily=Verdana;fontStyle=4" parent="1" vertex="1">
          <mxGeometry x="970" y="980" width="60" height="20" as="geometry" />
        </mxCell>
        <mxCell id="n2YtKvLNBDBYEo97HnMF-162" value="Hier kann sich ein bereits angelegter Benutzer anmelden." style="text;html=1;align=center;verticalAlign=middle;whiteSpace=wrap;rounded=0;strokeColor=default;" parent="1" vertex="1">
          <mxGeometry x="210" y="860" width="430" height="80" as="geometry" />
        </mxCell>
        <mxCell id="n2YtKvLNBDBYEo97HnMF-163" value="Navigation:&lt;div&gt;&lt;ul style=&quot;font-size: 10px;&quot;&gt;&lt;li&gt;UF1 - Login oder Registieren&lt;/li&gt;&lt;/ul&gt;&lt;/div&gt;" style="text;html=1;align=left;verticalAlign=top;whiteSpace=wrap;rounded=0;textShadow=0;strokeColor=default;" parent="1" vertex="1">
          <mxGeometry x="660" y="860" width="420" height="80" as="geometry" />
        </mxCell>
        <mxCell id="n2YtKvLNBDBYEo97HnMF-164" value="&lt;pre&gt;&lt;span style=&quot;font-family: Helvetica; white-space: normal;&quot;&gt;&lt;font style=&quot;font-size: 15px;&quot;&gt;View: Login&lt;/font&gt;&lt;/span&gt;&lt;/pre&gt;" style="text;whiteSpace=wrap;html=1;strokeColor=default;verticalAlign=middle;labelPosition=center;verticalLabelPosition=middle;align=center;" parent="1" vertex="1">
          <mxGeometry x="20" y="860" width="180" height="40" as="geometry" />
        </mxCell>
        <mxCell id="n2YtKvLNBDBYEo97HnMF-165" value="" style="whiteSpace=wrap;html=1;rounded=0;shadow=0;labelBackgroundColor=none;strokeWidth=1;fillColor=none;fontFamily=Verdana;fontSize=12;align=center;comic=1;movable=1;resizable=1;rotatable=1;deletable=1;editable=1;locked=0;connectable=1;" parent="1" vertex="1">
          <mxGeometry x="350" y="1130" width="400" height="380" as="geometry" />
        </mxCell>
        <mxCell id="n2YtKvLNBDBYEo97HnMF-166" value="Benutzername" style="html=1;shadow=0;dashed=0;shape=mxgraph.bootstrap.rect;strokeColor=none;fillColor=none;fontColor=#999999;align=left;spacingLeft=5;whiteSpace=wrap;rounded=0;movable=1;resizable=1;rotatable=1;deletable=1;editable=1;locked=0;connectable=1;fontFamily=Verdana;" parent="1" vertex="1">
          <mxGeometry x="373" y="1155" width="200" height="20" as="geometry" />
        </mxCell>
        <mxCell id="n2YtKvLNBDBYEo97HnMF-167" value="&amp;lt;Benutzername&amp;gt;" style="html=1;shadow=0;dashed=0;shape=mxgraph.bootstrap.rrect;rSize=5;strokeColor=#dddddd;align=left;spacingLeft=10;fontSize=16;whiteSpace=wrap;rounded=0;movable=1;resizable=1;rotatable=1;deletable=1;editable=1;locked=0;connectable=1;fontFamily=Verdana;" parent="1" vertex="1">
          <mxGeometry x="373" y="1175" width="360" height="35" as="geometry" />
        </mxCell>
        <mxCell id="n2YtKvLNBDBYEo97HnMF-168" value="&amp;lt;Passwort&amp;gt;" style="html=1;shadow=0;dashed=0;shape=mxgraph.bootstrap.rrect;rSize=5;strokeColor=#dddddd;align=left;spacingLeft=10;fontSize=16;whiteSpace=wrap;rounded=0;movable=1;resizable=1;rotatable=1;deletable=1;editable=1;locked=0;connectable=1;fontFamily=Verdana;" parent="1" vertex="1">
          <mxGeometry x="373" y="1250" width="360" height="35" as="geometry" />
        </mxCell>
        <mxCell id="n2YtKvLNBDBYEo97HnMF-169" value="Passwort" style="html=1;shadow=0;dashed=0;shape=mxgraph.bootstrap.rect;strokeColor=none;fillColor=none;fontColor=#999999;align=left;spacingLeft=5;whiteSpace=wrap;rounded=0;movable=1;resizable=1;rotatable=1;deletable=1;editable=1;locked=0;connectable=1;fontFamily=Verdana;" parent="1" vertex="1">
          <mxGeometry x="373" y="1230" width="200" height="20" as="geometry" />
        </mxCell>
        <mxCell id="n2YtKvLNBDBYEo97HnMF-170" value="Login" style="html=1;shadow=0;dashed=0;shape=mxgraph.bootstrap.rrect;align=center;rSize=5;strokeColor=none;fillColor=#3D8BCD;fontColor=#ffffff;fontSize=16;whiteSpace=wrap;rounded=0;movable=1;resizable=1;rotatable=1;deletable=1;editable=1;locked=0;connectable=1;fontFamily=Verdana;" parent="1" vertex="1">
          <mxGeometry x="475" y="1370" width="150" height="40" as="geometry" />
        </mxCell>
        <mxCell id="n2YtKvLNBDBYEo97HnMF-171" value="Registrieren" style="html=1;shadow=0;dashed=0;shape=mxgraph.bootstrap.rrect;align=center;rSize=5;strokeColor=none;fillColor=#3D8BCD;fontColor=#ffffff;fontSize=16;whiteSpace=wrap;rounded=0;movable=1;resizable=1;rotatable=1;deletable=1;editable=1;locked=0;connectable=1;fontFamily=Verdana;" parent="1" vertex="1">
          <mxGeometry x="475" y="1440" width="150" height="30" as="geometry" />
        </mxCell>
        <mxCell id="n2YtKvLNBDBYEo97HnMF-180" value="&lt;font style=&quot;font-size: 24px;&quot; face=&quot;Verdana&quot;&gt;Login&lt;/font&gt;" style="text;html=1;align=center;verticalAlign=middle;whiteSpace=wrap;rounded=0;" parent="1" vertex="1">
          <mxGeometry x="23" y="1060" width="180" height="30" as="geometry" />
        </mxCell>
        <mxCell id="n2YtKvLNBDBYEo97HnMF-181" value="&lt;font style=&quot;font-size: 24px;&quot; face=&quot;Verdana&quot;&gt;Registrieren&lt;/font&gt;" style="text;html=1;align=center;verticalAlign=middle;whiteSpace=wrap;rounded=0;" parent="1" vertex="1">
          <mxGeometry x="40" y="1910" width="180" height="30" as="geometry" />
        </mxCell>
        <mxCell id="n2YtKvLNBDBYEo97HnMF-182" value="&amp;lt;Passwort&amp;gt;" style="html=1;shadow=0;dashed=0;shape=mxgraph.bootstrap.rrect;rSize=5;strokeColor=#dddddd;align=left;spacingLeft=10;fontSize=14;whiteSpace=wrap;rounded=0;movable=1;resizable=1;rotatable=1;deletable=1;editable=1;locked=0;connectable=1;fontFamily=Verdana;" parent="1" vertex="1">
          <mxGeometry x="370" y="2325" width="360" height="35" as="geometry" />
        </mxCell>
        <mxCell id="n2YtKvLNBDBYEo97HnMF-183" value="Passwort wiederholen" style="html=1;shadow=0;dashed=0;shape=mxgraph.bootstrap.rect;strokeColor=none;fillColor=none;fontColor=#999999;align=left;spacingLeft=5;whiteSpace=wrap;rounded=0;movable=1;resizable=1;rotatable=1;deletable=1;editable=1;locked=0;connectable=1;fontFamily=Verdana;" parent="1" vertex="1">
          <mxGeometry x="370" y="2305" width="200" height="20" as="geometry" />
        </mxCell>
        <mxCell id="n2YtKvLNBDBYEo97HnMF-184" value="Email" style="html=1;shadow=0;dashed=0;shape=mxgraph.bootstrap.rect;strokeColor=none;fillColor=none;fontColor=#999999;align=left;spacingLeft=5;whiteSpace=wrap;rounded=0;movable=1;resizable=1;rotatable=1;deletable=1;editable=1;locked=0;connectable=1;fontFamily=Verdana;" parent="1" vertex="1">
          <mxGeometry x="373" y="2070" width="200" height="20" as="geometry" />
        </mxCell>
        <mxCell id="n2YtKvLNBDBYEo97HnMF-185" value="&amp;lt;Email&amp;gt;" style="html=1;shadow=0;dashed=0;shape=mxgraph.bootstrap.rrect;rSize=5;strokeColor=#dddddd;align=left;spacingLeft=10;fontSize=14;whiteSpace=wrap;rounded=0;movable=1;resizable=1;rotatable=1;deletable=1;editable=1;locked=0;connectable=1;fontFamily=Verdana;" parent="1" vertex="1">
          <mxGeometry x="373" y="2090" width="360" height="35" as="geometry" />
        </mxCell>
        <mxCell id="kVKc4i6fVkFVap-WpN75-8" value="" style="verticalLabelPosition=bottom;shadow=0;dashed=0;align=center;html=1;verticalAlign=top;strokeWidth=1;shape=mxgraph.mockup.graphics.simpleIcon;strokeColor=#999999;rounded=0;labelBackgroundColor=none;fontFamily=Verdana;fontSize=14;fontColor=#000000;comic=1;" parent="1" vertex="1">
          <mxGeometry x="30" y="240" width="200" height="580" as="geometry" />
        </mxCell>
        <mxCell id="GfoDm_0svsekAU_-suc4-2" value="LOGO" style="whiteSpace=wrap;html=1;rounded=0;shadow=0;labelBackgroundColor=none;strokeWidth=1;fontFamily=Verdana;fontSize=28;align=center;comic=1;" parent="1" vertex="1">
          <mxGeometry x="41" y="2675" width="190" height="50" as="geometry" />
        </mxCell>
        <mxCell id="GfoDm_0svsekAU_-suc4-5" value="" style="line;strokeWidth=1;html=1;rounded=0;shadow=0;labelBackgroundColor=none;fillColor=none;fontFamily=Verdana;fontSize=14;fontColor=#000000;align=center;comic=1;" parent="1" vertex="1">
          <mxGeometry x="20" y="2705" width="1060" height="75" as="geometry" />
        </mxCell>
        <mxCell id="GfoDm_0svsekAU_-suc4-11" value="&lt;div&gt;Rolle: Student&lt;/div&gt;" style="text;html=1;align=left;verticalAlign=middle;whiteSpace=wrap;rounded=0;spacing=2;strokeColor=default;" parent="1" vertex="1">
          <mxGeometry x="20" y="2600" width="180" height="40" as="geometry" />
        </mxCell>
        <mxCell id="GfoDm_0svsekAU_-suc4-12" value="In der Bibliothek werden Fragen und Fragenpools angezeigt und können bearbeitet werden. Welcher Benutzer welchen Bereich bearbeiten darf wird durch ein Rollen-Rechte-Konzept definiert. Entsprechend müssen Bearbeitungsfelder dieser View gesperrt werden können.&amp;nbsp;" style="text;html=1;align=center;verticalAlign=middle;whiteSpace=wrap;rounded=0;strokeColor=default;" parent="1" vertex="1">
          <mxGeometry x="210" y="2560" width="430" height="80" as="geometry" />
        </mxCell>
        <mxCell id="GfoDm_0svsekAU_-suc4-13" value="Navigation:&lt;div&gt;&lt;ul style=&quot;font-size: 10px;&quot;&gt;&lt;li&gt;UF7 - Profildaten anzeigen &amp;amp; ändern&amp;nbsp;&lt;/li&gt;&lt;/ul&gt;&lt;/div&gt;" style="text;html=1;align=left;verticalAlign=top;whiteSpace=wrap;rounded=0;textShadow=0;strokeColor=default;" parent="1" vertex="1">
          <mxGeometry x="660" y="2560" width="420" height="80" as="geometry" />
        </mxCell>
        <mxCell id="GfoDm_0svsekAU_-suc4-14" value="&lt;pre&gt;&lt;span style=&quot;color: rgb(240, 240, 240); font-family: Helvetica; font-style: normal; font-variant-ligatures: normal; font-variant-caps: normal; letter-spacing: normal; orphans: 2; text-align: left; text-indent: 0px; text-transform: none; widows: 2; word-spacing: 0px; -webkit-text-stroke-width: 0px; white-space: normal; background-color: rgb(27, 29, 30); text-decoration-thickness: initial; text-decoration-style: initial; text-decoration-color: initial; float: none; display: inline !important;&quot;&gt;&lt;font style=&quot;font-size: 15px;&quot;&gt;View: Profil&lt;/font&gt;&lt;/span&gt;&lt;/pre&gt;" style="text;whiteSpace=wrap;html=1;strokeColor=default;verticalAlign=middle;labelPosition=center;verticalLabelPosition=middle;align=center;" parent="1" vertex="1">
          <mxGeometry x="20" y="2560" width="180" height="40" as="geometry" />
        </mxCell>
        <mxCell id="GfoDm_0svsekAU_-suc4-16" value="[Bibliothek]" style="text;html=1;points=[];align=left;verticalAlign=top;spacingTop=-4;fontSize=14;fontFamily=Verdana;fontStyle=0" parent="1" vertex="1">
          <mxGeometry x="600" y="2675" width="60" height="20" as="geometry" />
        </mxCell>
        <mxCell id="GfoDm_0svsekAU_-suc4-17" value="[Einzelspieler]" style="text;html=1;points=[];align=left;verticalAlign=top;spacingTop=-4;fontSize=14;fontFamily=Verdana" parent="1" vertex="1">
          <mxGeometry x="690" y="2675" width="60" height="20" as="geometry" />
        </mxCell>
        <mxCell id="GfoDm_0svsekAU_-suc4-18" value="[Mehrspieler]" style="text;html=1;points=[];align=left;verticalAlign=top;spacingTop=-4;fontSize=14;fontFamily=Verdana" parent="1" vertex="1">
          <mxGeometry x="800" y="2675" width="60" height="20" as="geometry" />
        </mxCell>
        <mxCell id="GfoDm_0svsekAU_-suc4-19" value="&lt;u&gt;[Profil]&lt;/u&gt;" style="text;html=1;points=[];align=left;verticalAlign=top;spacingTop=-4;fontSize=14;fontFamily=Verdana" parent="1" vertex="1">
          <mxGeometry x="910" y="2675" width="60" height="20" as="geometry" />
        </mxCell>
        <mxCell id="GfoDm_0svsekAU_-suc4-20" value="[Logout]" style="text;html=1;points=[];align=left;verticalAlign=top;spacingTop=-4;fontSize=14;fontFamily=Verdana" parent="1" vertex="1">
          <mxGeometry x="970" y="2675" width="60" height="20" as="geometry" />
        </mxCell>
        <mxCell id="GfoDm_0svsekAU_-suc4-22" value="" style="whiteSpace=wrap;html=1;rounded=0;shadow=0;labelBackgroundColor=none;strokeWidth=1;fillColor=none;fontFamily=Verdana;fontSize=12;align=center;comic=1;" parent="1" vertex="1">
          <mxGeometry x="376" y="2820" width="361" height="350" as="geometry" />
        </mxCell>
        <mxCell id="GfoDm_0svsekAU_-suc4-23" value="Name:&amp;nbsp;" style="text;html=1;points=[];align=left;verticalAlign=top;spacingTop=-4;fontSize=14;fontFamily=Verdana" parent="1" vertex="1">
          <mxGeometry x="393.5" y="2880" width="170" height="20" as="geometry" />
        </mxCell>
        <mxCell id="GfoDm_0svsekAU_-suc4-24" value="Email:" style="text;html=1;points=[];align=left;verticalAlign=top;spacingTop=-4;fontSize=14;fontFamily=Verdana" parent="1" vertex="1">
          <mxGeometry x="393.5" y="2916" width="170" height="20" as="geometry" />
        </mxCell>
        <mxCell id="GfoDm_0svsekAU_-suc4-25" value="Rolle:&amp;nbsp;" style="text;html=1;points=[];align=left;verticalAlign=top;spacingTop=-4;fontSize=14;fontFamily=Verdana" parent="1" vertex="1">
          <mxGeometry x="393.5" y="2951" width="170" height="20" as="geometry" />
        </mxCell>
        <mxCell id="GfoDm_0svsekAU_-suc4-28" value="&lt;font style=&quot;font-size: 20px;&quot; face=&quot;Verdana&quot;&gt;Profildaten&lt;/font&gt;" style="text;html=1;align=center;verticalAlign=middle;whiteSpace=wrap;rounded=0;" parent="1" vertex="1">
          <mxGeometry x="364" y="2835" width="180" height="30" as="geometry" />
        </mxCell>
        <mxCell id="GfoDm_0svsekAU_-suc4-29" value="Profildaten ändern" style="html=1;shadow=0;dashed=0;shape=mxgraph.bootstrap.rrect;align=center;rSize=5;strokeColor=none;fillColor=#3D8BCD;fontColor=#ffffff;fontSize=14;whiteSpace=wrap;rounded=0;movable=1;resizable=1;rotatable=1;deletable=1;editable=1;locked=0;connectable=1;fontFamily=Verdana;" parent="1" vertex="1">
          <mxGeometry x="481.5" y="3070" width="150" height="34" as="geometry" />
        </mxCell>
        <mxCell id="GfoDm_0svsekAU_-suc4-53" value="Profil löschen" style="html=1;shadow=0;dashed=0;shape=mxgraph.bootstrap.rrect;align=center;rSize=5;strokeColor=none;fillColor=#3D8BCD;fontColor=#ffffff;fontSize=14;whiteSpace=wrap;rounded=0;movable=1;resizable=1;rotatable=1;deletable=1;editable=1;locked=0;connectable=1;fontFamily=Verdana;" parent="1" vertex="1">
          <mxGeometry x="481.5" y="3114" width="150" height="34" as="geometry" />
        </mxCell>
        <mxCell id="GfoDm_0svsekAU_-suc4-54" value="[Profildaten]" style="text;html=1;points=[];align=left;verticalAlign=top;spacingTop=-4;fontSize=14;fontFamily=Verdana" parent="1" vertex="1">
          <mxGeometry x="45" y="2835" width="170" height="20" as="geometry" />
        </mxCell>
        <mxCell id="GfoDm_0svsekAU_-suc4-55" value="[Quiz-Statistik]" style="text;html=1;points=[];align=left;verticalAlign=top;spacingTop=-4;fontSize=14;fontFamily=Verdana" parent="1" vertex="1">
          <mxGeometry x="45" y="2871" width="170" height="20" as="geometry" />
        </mxCell>
        <mxCell id="GfoDm_0svsekAU_-suc4-59" value="&lt;font style=&quot;font-size: 24px;&quot; face=&quot;Verdana&quot;&gt;Profil&lt;/font&gt;" style="text;html=1;align=center;verticalAlign=middle;whiteSpace=wrap;rounded=0;" parent="1" vertex="1">
          <mxGeometry x="30" y="2760" width="180" height="30" as="geometry" />
        </mxCell>
        <mxCell id="W82GU2s6WwhUZmdlV-3S-3" value="&lt;font style=&quot;font-size: 24px;&quot; face=&quot;Verdana&quot;&gt;Bibliothek&lt;/font&gt;" style="text;html=1;align=center;verticalAlign=middle;whiteSpace=wrap;rounded=0;" parent="1" vertex="1">
          <mxGeometry x="35" y="200" width="180" height="30" as="geometry" />
        </mxCell>
        <mxCell id="MbzPR43FBCwSQIJfIcqY-1" value="[Eigene Quiz]" style="text;html=1;points=[];align=left;verticalAlign=top;spacingTop=-4;fontSize=14;fontFamily=Verdana" parent="1" vertex="1">
          <mxGeometry x="46" y="2906" width="170" height="20" as="geometry" />
        </mxCell>
        <mxCell id="MbzPR43FBCwSQIJfIcqY-4" value="" style="whiteSpace=wrap;html=1;rounded=0;shadow=0;labelBackgroundColor=none;strokeWidth=1;fillColor=none;fontFamily=Verdana;fontSize=12;align=center;comic=1;" parent="1" vertex="1">
          <mxGeometry x="31" y="3670" width="200" height="505" as="geometry" />
        </mxCell>
        <mxCell id="MbzPR43FBCwSQIJfIcqY-5" value="LOGO" style="whiteSpace=wrap;html=1;rounded=0;shadow=0;labelBackgroundColor=none;strokeWidth=1;fontFamily=Verdana;fontSize=28;align=center;comic=1;" parent="1" vertex="1">
          <mxGeometry x="41" y="3525" width="190" height="50" as="geometry" />
        </mxCell>
        <mxCell id="MbzPR43FBCwSQIJfIcqY-6" value="" style="line;strokeWidth=1;html=1;rounded=0;shadow=0;labelBackgroundColor=none;fillColor=none;fontFamily=Verdana;fontSize=14;fontColor=#000000;align=center;comic=1;" parent="1" vertex="1">
          <mxGeometry x="20" y="3555" width="1060" height="75" as="geometry" />
        </mxCell>
        <mxCell id="MbzPR43FBCwSQIJfIcqY-7" value="&lt;div&gt;Rolle: Student&lt;/div&gt;" style="text;html=1;align=left;verticalAlign=middle;whiteSpace=wrap;rounded=0;spacing=2;strokeColor=default;" parent="1" vertex="1">
          <mxGeometry x="20" y="3450" width="180" height="40" as="geometry" />
        </mxCell>
        <mxCell id="MbzPR43FBCwSQIJfIcqY-8" value="In der Bibliothek werden Fragen und Fragenpools angezeigt und können bearbeitet werden. Welcher Benutzer welchen Bereich bearbeiten darf wird durch ein Rollen-Rechte-Konzept definiert. Entsprechend müssen Bearbeitungsfelder dieser View gesperrt werden können.&amp;nbsp;" style="text;html=1;align=center;verticalAlign=middle;whiteSpace=wrap;rounded=0;strokeColor=default;" parent="1" vertex="1">
          <mxGeometry x="210" y="3410" width="430" height="80" as="geometry" />
        </mxCell>
        <mxCell id="MbzPR43FBCwSQIJfIcqY-9" value="Navigation:&lt;div&gt;&lt;ul style=&quot;font-size: 10px;&quot;&gt;&lt;li&gt;UF7 - Profildaten anzeigen &amp;amp; ändern&amp;nbsp;&lt;/li&gt;&lt;/ul&gt;&lt;/div&gt;" style="text;html=1;align=left;verticalAlign=top;whiteSpace=wrap;rounded=0;textShadow=0;strokeColor=default;" parent="1" vertex="1">
          <mxGeometry x="660" y="3410" width="420" height="80" as="geometry" />
        </mxCell>
        <mxCell id="MbzPR43FBCwSQIJfIcqY-10" value="&lt;pre&gt;&lt;span style=&quot;color: rgb(240, 240, 240); font-family: Helvetica; font-style: normal; font-variant-ligatures: normal; font-variant-caps: normal; letter-spacing: normal; orphans: 2; text-align: left; text-indent: 0px; text-transform: none; widows: 2; word-spacing: 0px; -webkit-text-stroke-width: 0px; white-space: normal; background-color: rgb(27, 29, 30); text-decoration-thickness: initial; text-decoration-style: initial; text-decoration-color: initial; float: none; display: inline !important;&quot;&gt;&lt;font style=&quot;font-size: 15px;&quot;&gt;View: Profil - Profildaten ändern&lt;/font&gt;&lt;/span&gt;&lt;/pre&gt;" style="text;whiteSpace=wrap;html=1;strokeColor=default;verticalAlign=middle;labelPosition=center;verticalLabelPosition=middle;align=center;" parent="1" vertex="1">
          <mxGeometry x="20" y="3410" width="180" height="40" as="geometry" />
        </mxCell>
        <mxCell id="MbzPR43FBCwSQIJfIcqY-11" value="[Bibliothek]" style="text;html=1;points=[];align=left;verticalAlign=top;spacingTop=-4;fontSize=14;fontFamily=Verdana;fontStyle=0" parent="1" vertex="1">
          <mxGeometry x="600" y="3525" width="60" height="20" as="geometry" />
        </mxCell>
        <mxCell id="MbzPR43FBCwSQIJfIcqY-12" value="[Einzelspieler]" style="text;html=1;points=[];align=left;verticalAlign=top;spacingTop=-4;fontSize=14;fontFamily=Verdana" parent="1" vertex="1">
          <mxGeometry x="690" y="3525" width="60" height="20" as="geometry" />
        </mxCell>
        <mxCell id="MbzPR43FBCwSQIJfIcqY-13" value="[Mehrspieler]" style="text;html=1;points=[];align=left;verticalAlign=top;spacingTop=-4;fontSize=14;fontFamily=Verdana" parent="1" vertex="1">
          <mxGeometry x="800" y="3525" width="60" height="20" as="geometry" />
        </mxCell>
        <mxCell id="MbzPR43FBCwSQIJfIcqY-14" value="&lt;u&gt;[Profil]&lt;/u&gt;" style="text;html=1;points=[];align=left;verticalAlign=top;spacingTop=-4;fontSize=14;fontFamily=Verdana" parent="1" vertex="1">
          <mxGeometry x="910" y="3525" width="60" height="20" as="geometry" />
        </mxCell>
        <mxCell id="MbzPR43FBCwSQIJfIcqY-15" value="[Logout]" style="text;html=1;points=[];align=left;verticalAlign=top;spacingTop=-4;fontSize=14;fontFamily=Verdana" parent="1" vertex="1">
          <mxGeometry x="970" y="3525" width="60" height="20" as="geometry" />
        </mxCell>
        <mxCell id="MbzPR43FBCwSQIJfIcqY-23" value="[Profildaten]" style="text;html=1;points=[];align=left;verticalAlign=top;spacingTop=-4;fontSize=14;fontFamily=Verdana" parent="1" vertex="1">
          <mxGeometry x="45" y="3685" width="170" height="20" as="geometry" />
        </mxCell>
        <mxCell id="MbzPR43FBCwSQIJfIcqY-24" value="[Quiz-Statistik]" style="text;html=1;points=[];align=left;verticalAlign=top;spacingTop=-4;fontSize=14;fontFamily=Verdana" parent="1" vertex="1">
          <mxGeometry x="45" y="3721" width="170" height="20" as="geometry" />
        </mxCell>
        <mxCell id="MbzPR43FBCwSQIJfIcqY-25" value="&lt;font style=&quot;font-size: 24px;&quot; face=&quot;Verdana&quot;&gt;Profil&lt;/font&gt;" style="text;html=1;align=center;verticalAlign=middle;whiteSpace=wrap;rounded=0;" parent="1" vertex="1">
          <mxGeometry x="30" y="3610" width="180" height="30" as="geometry" />
        </mxCell>
        <mxCell id="MbzPR43FBCwSQIJfIcqY-27" value="[Eigene Quiz]" style="text;html=1;points=[];align=left;verticalAlign=top;spacingTop=-4;fontSize=14;fontFamily=Verdana" parent="1" vertex="1">
          <mxGeometry x="46" y="3756" width="170" height="20" as="geometry" />
        </mxCell>
        <mxCell id="MbzPR43FBCwSQIJfIcqY-29" value="Benutzername" style="html=1;shadow=0;dashed=0;shape=mxgraph.bootstrap.rect;strokeColor=none;fillColor=none;fontColor=#999999;align=left;spacingLeft=5;whiteSpace=wrap;rounded=0;movable=1;resizable=1;rotatable=1;deletable=1;editable=1;locked=0;connectable=1;fontFamily=Verdana;" parent="1" vertex="1">
          <mxGeometry x="373" y="3731" width="200" height="20" as="geometry" />
        </mxCell>
        <mxCell id="MbzPR43FBCwSQIJfIcqY-30" value="&amp;lt;Benutzername&amp;gt;" style="html=1;shadow=0;dashed=0;shape=mxgraph.bootstrap.rrect;rSize=5;strokeColor=#dddddd;align=left;spacingLeft=10;fontSize=14;whiteSpace=wrap;rounded=0;movable=1;resizable=1;rotatable=1;deletable=1;editable=1;locked=0;connectable=1;fontFamily=Verdana;" parent="1" vertex="1">
          <mxGeometry x="373" y="3751" width="360" height="35" as="geometry" />
        </mxCell>
        <mxCell id="MbzPR43FBCwSQIJfIcqY-31" value="&amp;lt;Passwort&amp;gt;" style="html=1;shadow=0;dashed=0;shape=mxgraph.bootstrap.rrect;rSize=5;strokeColor=#dddddd;align=left;spacingLeft=10;fontSize=14;whiteSpace=wrap;rounded=0;movable=1;resizable=1;rotatable=1;deletable=1;editable=1;locked=0;connectable=1;fontFamily=Verdana;" parent="1" vertex="1">
          <mxGeometry x="370" y="3996" width="360" height="35" as="geometry" />
        </mxCell>
        <mxCell id="MbzPR43FBCwSQIJfIcqY-32" value="Passwort" style="html=1;shadow=0;dashed=0;shape=mxgraph.bootstrap.rect;strokeColor=none;fillColor=none;fontColor=#999999;align=left;spacingLeft=5;whiteSpace=wrap;rounded=0;movable=1;resizable=1;rotatable=1;deletable=1;editable=1;locked=0;connectable=1;fontFamily=Verdana;" parent="1" vertex="1">
          <mxGeometry x="370" y="3976" width="200" height="20" as="geometry" />
        </mxCell>
        <mxCell id="MbzPR43FBCwSQIJfIcqY-33" value="Änderung speichern" style="html=1;shadow=0;dashed=0;shape=mxgraph.bootstrap.rrect;align=center;rSize=5;strokeColor=none;fillColor=#3D8BCD;fontColor=#ffffff;fontSize=14;whiteSpace=wrap;rounded=0;movable=1;resizable=1;rotatable=1;deletable=1;editable=1;locked=0;connectable=1;fontFamily=Verdana;" parent="1" vertex="1">
          <mxGeometry x="370" y="4136" width="150" height="30" as="geometry" />
        </mxCell>
        <mxCell id="MbzPR43FBCwSQIJfIcqY-34" value="&amp;lt;Passwort&amp;gt;" style="html=1;shadow=0;dashed=0;shape=mxgraph.bootstrap.rrect;rSize=5;strokeColor=#dddddd;align=left;spacingLeft=10;fontSize=14;whiteSpace=wrap;rounded=0;movable=1;resizable=1;rotatable=1;deletable=1;editable=1;locked=0;connectable=1;fontFamily=Verdana;" parent="1" vertex="1">
          <mxGeometry x="370" y="4051" width="360" height="35" as="geometry" />
        </mxCell>
        <mxCell id="MbzPR43FBCwSQIJfIcqY-35" value="Passwort wiederholen" style="html=1;shadow=0;dashed=0;shape=mxgraph.bootstrap.rect;strokeColor=none;fillColor=none;fontColor=#999999;align=left;spacingLeft=5;whiteSpace=wrap;rounded=0;movable=1;resizable=1;rotatable=1;deletable=1;editable=1;locked=0;connectable=1;fontFamily=Verdana;" parent="1" vertex="1">
          <mxGeometry x="370" y="4031" width="200" height="20" as="geometry" />
        </mxCell>
        <mxCell id="MbzPR43FBCwSQIJfIcqY-36" value="Email" style="html=1;shadow=0;dashed=0;shape=mxgraph.bootstrap.rect;strokeColor=none;fillColor=none;fontColor=#999999;align=left;spacingLeft=5;whiteSpace=wrap;rounded=0;movable=1;resizable=1;rotatable=1;deletable=1;editable=1;locked=0;connectable=1;fontFamily=Verdana;" parent="1" vertex="1">
          <mxGeometry x="373" y="3796" width="200" height="20" as="geometry" />
        </mxCell>
        <mxCell id="MbzPR43FBCwSQIJfIcqY-37" value="&amp;lt;Email&amp;gt;" style="html=1;shadow=0;dashed=0;shape=mxgraph.bootstrap.rrect;rSize=5;strokeColor=#dddddd;align=left;spacingLeft=10;fontSize=14;whiteSpace=wrap;rounded=0;movable=1;resizable=1;rotatable=1;deletable=1;editable=1;locked=0;connectable=1;fontFamily=Verdana;" parent="1" vertex="1">
          <mxGeometry x="373" y="3816" width="360" height="35" as="geometry" />
        </mxCell>
        <mxCell id="MbzPR43FBCwSQIJfIcqY-43" value="&lt;font style=&quot;font-size: 20px;&quot; face=&quot;Verdana&quot;&gt;Profildaten ändern&lt;/font&gt;" style="text;html=1;align=center;verticalAlign=middle;whiteSpace=wrap;rounded=0;" parent="1" vertex="1">
          <mxGeometry x="362" y="3680" width="208" height="30" as="geometry" />
        </mxCell>
        <mxCell id="MbzPR43FBCwSQIJfIcqY-44" value="Abbrechen" style="html=1;shadow=0;dashed=0;shape=mxgraph.bootstrap.rrect;align=center;rSize=5;strokeColor=none;fillColor=#3D8BCD;fontColor=#ffffff;fontSize=14;whiteSpace=wrap;rounded=0;movable=1;resizable=1;rotatable=1;deletable=1;editable=1;locked=0;connectable=1;fontFamily=Verdana;" parent="1" vertex="1">
          <mxGeometry x="578" y="4132" width="150" height="34" as="geometry" />
        </mxCell>
      </root>
    </mxGraphModel>
  </diagram>
  <diagram id="rxBBXxplpIB61frRZVm7" name="Library">
    <mxGraphModel dx="1420" dy="830" grid="1" gridSize="10" guides="1" tooltips="1" connect="1" arrows="1" fold="1" page="1" pageScale="1" pageWidth="1100" pageHeight="850" math="0" shadow="0">
      <root>
        <mxCell id="0" />
        <mxCell id="1" parent="0" />
        <mxCell id="f_p-OuV4b7vRWUslF7y5-1" value="" style="whiteSpace=wrap;html=1;rounded=0;shadow=0;labelBackgroundColor=none;strokeColor=#000000;strokeWidth=1;fillColor=none;fontFamily=Verdana;fontSize=12;fontColor=#000000;align=center;comic=1;" parent="1" vertex="1">
          <mxGeometry x="20" y="960" width="1060" height="720" as="geometry" />
        </mxCell>
        <mxCell id="f_p-OuV4b7vRWUslF7y5-28" value="" style="whiteSpace=wrap;html=1;rounded=0;shadow=0;labelBackgroundColor=none;strokeWidth=1;fillColor=none;fontFamily=Verdana;fontSize=12;align=center;comic=1;" parent="1" vertex="1">
          <mxGeometry x="630" y="1100" width="440" height="570" as="geometry" />
        </mxCell>
        <mxCell id="pdzxmcTk3hKJVAjj3abB-16" value="" style="whiteSpace=wrap;html=1;rounded=0;shadow=0;labelBackgroundColor=none;strokeWidth=1;fillColor=none;fontFamily=Verdana;fontSize=12;align=center;comic=1;" parent="1" vertex="1">
          <mxGeometry x="660" y="1202" width="380" height="220" as="geometry" />
        </mxCell>
        <mxCell id="zuLXKoTY26Q8QqLuJM39-1" value="" style="whiteSpace=wrap;html=1;rounded=0;shadow=0;labelBackgroundColor=none;strokeColor=#000000;strokeWidth=1;fillColor=none;fontFamily=Verdana;fontSize=12;fontColor=#000000;align=center;comic=1;" parent="1" vertex="1">
          <mxGeometry x="20" y="110" width="1060" height="720" as="geometry" />
        </mxCell>
        <mxCell id="zuLXKoTY26Q8QqLuJM39-2" value="LOGO" style="whiteSpace=wrap;html=1;rounded=0;shadow=0;labelBackgroundColor=none;strokeWidth=1;fontFamily=Verdana;fontSize=28;align=center;comic=1;" parent="1" vertex="1">
          <mxGeometry x="37" y="125" width="190" height="50" as="geometry" />
        </mxCell>
        <mxCell id="zuLXKoTY26Q8QqLuJM39-3" value="[Bibliothek]" style="text;html=1;points=[];align=left;verticalAlign=top;spacingTop=-4;fontSize=14;fontFamily=Verdana;fontStyle=4" parent="1" vertex="1">
          <mxGeometry x="880" y="130" width="60" height="20" as="geometry" />
        </mxCell>
        <mxCell id="zuLXKoTY26Q8QqLuJM39-4" value="" style="whiteSpace=wrap;html=1;rounded=0;shadow=0;labelBackgroundColor=none;strokeWidth=1;fillColor=none;fontFamily=Verdana;fontSize=12;align=center;comic=1;" parent="1" vertex="1">
          <mxGeometry x="30" y="245" width="200" height="575" as="geometry" />
        </mxCell>
        <mxCell id="zuLXKoTY26Q8QqLuJM39-5" value="" style="line;strokeWidth=1;html=1;rounded=0;shadow=0;labelBackgroundColor=none;fillColor=none;fontFamily=Verdana;fontSize=14;fontColor=#000000;align=center;comic=1;" parent="1" vertex="1">
          <mxGeometry x="20" y="189" width="1060" height="10" as="geometry" />
        </mxCell>
        <mxCell id="zuLXKoTY26Q8QqLuJM39-7" value="&lt;u&gt;[Pool 1]&lt;/u&gt;" style="text;html=1;points=[];align=left;verticalAlign=top;spacingTop=-4;fontSize=14;fontFamily=Verdana" parent="1" vertex="1">
          <mxGeometry x="45" y="315" width="170" height="20" as="geometry" />
        </mxCell>
        <mxCell id="zuLXKoTY26Q8QqLuJM39-8" value="[Pool 2]" style="text;html=1;points=[];align=left;verticalAlign=top;spacingTop=-4;fontSize=14;fontFamily=Verdana" parent="1" vertex="1">
          <mxGeometry x="45" y="351" width="170" height="20" as="geometry" />
        </mxCell>
        <mxCell id="zuLXKoTY26Q8QqLuJM39-9" value="[Pool 3]" style="text;html=1;points=[];align=left;verticalAlign=top;spacingTop=-4;fontSize=14;fontFamily=Verdana" parent="1" vertex="1">
          <mxGeometry x="45" y="386" width="170" height="20" as="geometry" />
        </mxCell>
        <mxCell id="zuLXKoTY26Q8QqLuJM39-10" value="[Pool 4]" style="text;html=1;points=[];align=left;verticalAlign=top;spacingTop=-4;fontSize=14;fontFamily=Verdana" parent="1" vertex="1">
          <mxGeometry x="45" y="422" width="170" height="20" as="geometry" />
        </mxCell>
        <mxCell id="zuLXKoTY26Q8QqLuJM39-11" value="[Pool 5]" style="text;html=1;points=[];align=left;verticalAlign=top;spacingTop=-4;fontSize=14;fontFamily=Verdana" parent="1" vertex="1">
          <mxGeometry x="45" y="458" width="170" height="20" as="geometry" />
        </mxCell>
        <mxCell id="zuLXKoTY26Q8QqLuJM39-12" value="&lt;div&gt;Rolle: loged out&lt;/div&gt;" style="text;html=1;align=left;verticalAlign=middle;whiteSpace=wrap;rounded=0;spacing=2;strokeColor=default;" parent="1" vertex="1">
          <mxGeometry x="20" y="50" width="180" height="40" as="geometry" />
        </mxCell>
        <mxCell id="zuLXKoTY26Q8QqLuJM39-13" value="[Login]" style="text;html=1;points=[];align=left;verticalAlign=top;spacingTop=-4;fontSize=14;fontFamily=Verdana" parent="1" vertex="1">
          <mxGeometry x="970" y="130" width="60" height="20" as="geometry" />
        </mxCell>
        <mxCell id="zuLXKoTY26Q8QqLuJM39-14" value="Die Bibliothek ist zugleich die Landing Page. Uneingelogte User können Bibliotheksinhalte lesen.&amp;nbsp;" style="text;html=1;align=center;verticalAlign=middle;whiteSpace=wrap;rounded=0;strokeColor=default;" parent="1" vertex="1">
          <mxGeometry x="210" y="10" width="430" height="80" as="geometry" />
        </mxCell>
        <mxCell id="zuLXKoTY26Q8QqLuJM39-15" value="Navigation:&lt;div&gt;&lt;ul style=&quot;font-size: 10px;&quot;&gt;&lt;li&gt;UF1 - Login oder Registieren&lt;/li&gt;&lt;li&gt;UF2 - (loged out) Bibliothek ansehen&amp;nbsp;&lt;/li&gt;&lt;/ul&gt;&lt;/div&gt;" style="text;html=1;align=left;verticalAlign=top;whiteSpace=wrap;rounded=0;textShadow=0;strokeColor=default;" parent="1" vertex="1">
          <mxGeometry x="660" y="10" width="420" height="80" as="geometry" />
        </mxCell>
        <mxCell id="zuLXKoTY26Q8QqLuJM39-16" value="&lt;pre&gt;&lt;span style=&quot;color: rgb(240, 240, 240); font-family: Helvetica; font-style: normal; font-variant-ligatures: normal; font-variant-caps: normal; letter-spacing: normal; orphans: 2; text-align: left; text-indent: 0px; text-transform: none; widows: 2; word-spacing: 0px; -webkit-text-stroke-width: 0px; white-space: normal; background-color: rgb(27, 29, 30); text-decoration-thickness: initial; text-decoration-style: initial; text-decoration-color: initial; float: none; display: inline !important;&quot;&gt;&lt;font style=&quot;font-size: 15px;&quot;&gt;View: Bibliothek&lt;/font&gt;&lt;/span&gt;&lt;/pre&gt;" style="text;whiteSpace=wrap;html=1;strokeColor=default;verticalAlign=top;" parent="1" vertex="1">
          <mxGeometry x="20" y="10" width="180" height="40" as="geometry" />
        </mxCell>
        <mxCell id="zuLXKoTY26Q8QqLuJM39-17" value="&lt;font style=&quot;font-size: 24px;&quot; face=&quot;Verdana&quot;&gt;Bibliothek&lt;/font&gt;" style="text;html=1;align=center;verticalAlign=middle;whiteSpace=wrap;rounded=0;" parent="1" vertex="1">
          <mxGeometry x="37" y="205" width="180" height="30" as="geometry" />
        </mxCell>
        <mxCell id="zuLXKoTY26Q8QqLuJM39-18" value="" style="whiteSpace=wrap;html=1;rounded=0;shadow=0;labelBackgroundColor=none;strokeWidth=1;fillColor=none;fontFamily=Verdana;fontSize=12;align=center;comic=1;" parent="1" vertex="1">
          <mxGeometry x="257" y="245" width="340" height="575" as="geometry" />
        </mxCell>
        <mxCell id="zuLXKoTY26Q8QqLuJM39-19" value="Frage 1" style="text;html=1;points=[];align=left;verticalAlign=top;spacingTop=-4;fontSize=14;fontFamily=Verdana" parent="1" vertex="1">
          <mxGeometry x="284" y="343" width="170" height="20" as="geometry" />
        </mxCell>
        <mxCell id="zuLXKoTY26Q8QqLuJM39-20" value="&lt;span&gt;Frage 2&lt;/span&gt;" style="text;html=1;points=[];align=left;verticalAlign=top;spacingTop=-4;fontSize=14;fontFamily=Verdana;fontStyle=4" parent="1" vertex="1">
          <mxGeometry x="284" y="379" width="170" height="20" as="geometry" />
        </mxCell>
        <mxCell id="zuLXKoTY26Q8QqLuJM39-21" value="Frage 3" style="text;html=1;points=[];align=left;verticalAlign=top;spacingTop=-4;fontSize=14;fontFamily=Verdana" parent="1" vertex="1">
          <mxGeometry x="284" y="414" width="170" height="20" as="geometry" />
        </mxCell>
        <mxCell id="zuLXKoTY26Q8QqLuJM39-22" value="Frage 4" style="text;html=1;points=[];align=left;verticalAlign=top;spacingTop=-4;fontSize=14;fontFamily=Verdana" parent="1" vertex="1">
          <mxGeometry x="284" y="450" width="170" height="20" as="geometry" />
        </mxCell>
        <mxCell id="zuLXKoTY26Q8QqLuJM39-23" value="Frage 5" style="text;html=1;points=[];align=left;verticalAlign=top;spacingTop=-4;fontSize=14;fontFamily=Verdana" parent="1" vertex="1">
          <mxGeometry x="284" y="486" width="170" height="20" as="geometry" />
        </mxCell>
        <mxCell id="zuLXKoTY26Q8QqLuJM39-24" value="&lt;font style=&quot;font-size: 24px;&quot; face=&quot;Verdana&quot;&gt;Fragen&lt;/font&gt;" style="text;html=1;align=center;verticalAlign=middle;whiteSpace=wrap;rounded=0;fontFamily=Helvetica;fontSize=12;fontColor=default;" parent="1" vertex="1">
          <mxGeometry x="329" y="255" width="180" height="30" as="geometry" />
        </mxCell>
        <mxCell id="zuLXKoTY26Q8QqLuJM39-25" value="&lt;font style=&quot;font-size: 24px;&quot; face=&quot;Verdana&quot;&gt;Quizpool&lt;/font&gt;" style="text;html=1;align=center;verticalAlign=middle;whiteSpace=wrap;rounded=0;" parent="1" vertex="1">
          <mxGeometry x="40" y="255" width="180" height="30" as="geometry" />
        </mxCell>
        <mxCell id="zuLXKoTY26Q8QqLuJM39-26" value="&lt;font style=&quot;font-size: 20px;&quot; face=&quot;Verdana&quot;&gt;Pool 1&lt;/font&gt;" style="text;html=1;align=center;verticalAlign=middle;whiteSpace=wrap;rounded=0;fontFamily=Helvetica;fontSize=12;fontColor=default;" parent="1" vertex="1">
          <mxGeometry x="237" y="295" width="180" height="30" as="geometry" />
        </mxCell>
        <mxCell id="f_p-OuV4b7vRWUslF7y5-2" value="LOGO" style="whiteSpace=wrap;html=1;rounded=0;shadow=0;labelBackgroundColor=none;strokeWidth=1;fontFamily=Verdana;fontSize=28;align=center;comic=1;" parent="1" vertex="1">
          <mxGeometry x="38" y="975" width="190" height="50" as="geometry" />
        </mxCell>
        <mxCell id="f_p-OuV4b7vRWUslF7y5-3" value="" style="whiteSpace=wrap;html=1;rounded=0;shadow=0;labelBackgroundColor=none;strokeWidth=1;fillColor=none;fontFamily=Verdana;fontSize=12;align=center;comic=1;" parent="1" vertex="1">
          <mxGeometry x="30" y="1100" width="200" height="570" as="geometry" />
        </mxCell>
        <mxCell id="f_p-OuV4b7vRWUslF7y5-4" value="" style="line;strokeWidth=1;html=1;rounded=0;shadow=0;labelBackgroundColor=none;fillColor=none;fontFamily=Verdana;fontSize=14;fontColor=#000000;align=center;comic=1;" parent="1" vertex="1">
          <mxGeometry x="20" y="1040" width="1060" height="10" as="geometry" />
        </mxCell>
        <mxCell id="f_p-OuV4b7vRWUslF7y5-5" value="&lt;u&gt;[Pool 1]&lt;/u&gt;" style="text;html=1;points=[];align=left;verticalAlign=top;spacingTop=-4;fontSize=14;fontFamily=Verdana" parent="1" vertex="1">
          <mxGeometry x="45" y="1165" width="170" height="20" as="geometry" />
        </mxCell>
        <mxCell id="f_p-OuV4b7vRWUslF7y5-6" value="[Pool 2]" style="text;html=1;points=[];align=left;verticalAlign=top;spacingTop=-4;fontSize=14;fontFamily=Verdana" parent="1" vertex="1">
          <mxGeometry x="45" y="1201" width="170" height="20" as="geometry" />
        </mxCell>
        <mxCell id="f_p-OuV4b7vRWUslF7y5-7" value="[Pool 3]" style="text;html=1;points=[];align=left;verticalAlign=top;spacingTop=-4;fontSize=14;fontFamily=Verdana" parent="1" vertex="1">
          <mxGeometry x="45" y="1236" width="170" height="20" as="geometry" />
        </mxCell>
        <mxCell id="f_p-OuV4b7vRWUslF7y5-8" value="[Pool 4]" style="text;html=1;points=[];align=left;verticalAlign=top;spacingTop=-4;fontSize=14;fontFamily=Verdana" parent="1" vertex="1">
          <mxGeometry x="45" y="1272" width="170" height="20" as="geometry" />
        </mxCell>
        <mxCell id="f_p-OuV4b7vRWUslF7y5-9" value="[Pool 5]" style="text;html=1;points=[];align=left;verticalAlign=top;spacingTop=-4;fontSize=14;fontFamily=Verdana" parent="1" vertex="1">
          <mxGeometry x="45" y="1308" width="170" height="20" as="geometry" />
        </mxCell>
        <mxCell id="f_p-OuV4b7vRWUslF7y5-10" value="&lt;div&gt;Rolle: default&lt;/div&gt;" style="text;html=1;align=left;verticalAlign=middle;whiteSpace=wrap;rounded=0;spacing=2;strokeColor=default;" parent="1" vertex="1">
          <mxGeometry x="20" y="900" width="180" height="40" as="geometry" />
        </mxCell>
        <mxCell id="f_p-OuV4b7vRWUslF7y5-11" value="In der Bibliothek werden Fragen und Fragenpools angezeigt und können bearbeitet werden. Welcher Benutzer welchen Bereich bearbeiten darf wird durch ein Rollen-Rechte-Konzept definiert. Entsprechend müssen Bearbeitungsfelder dieser View gesperrt werden können.&amp;nbsp;" style="text;html=1;align=center;verticalAlign=middle;whiteSpace=wrap;rounded=0;strokeColor=default;" parent="1" vertex="1">
          <mxGeometry x="210" y="860" width="430" height="80" as="geometry" />
        </mxCell>
        <mxCell id="f_p-OuV4b7vRWUslF7y5-12" value="Navigation:&lt;div&gt;&lt;ul style=&quot;font-size: 10px;&quot;&gt;&lt;li&gt;UF3 - (as default) Bibliothek ansehen&lt;/li&gt;&lt;li&gt;UF4 - (as default) Fragenpool erstellen / Name ändern / löschen&lt;/li&gt;&lt;li&gt;UF5 - (as default) Fragen erstellen / Namen ändern / löschen&lt;/li&gt;&lt;li&gt;UF6 - (as default) Antwortoptionen erstellen / ändern / löschen&amp;nbsp;&lt;span style=&quot;background-color: initial;&quot;&gt;&amp;nbsp;&lt;/span&gt;&lt;/li&gt;&lt;/ul&gt;&lt;/div&gt;" style="text;html=1;align=left;verticalAlign=top;whiteSpace=wrap;rounded=0;textShadow=0;strokeColor=default;" parent="1" vertex="1">
          <mxGeometry x="660" y="860" width="420" height="80" as="geometry" />
        </mxCell>
        <mxCell id="f_p-OuV4b7vRWUslF7y5-13" value="&lt;pre&gt;&lt;span style=&quot;color: rgb(240, 240, 240); font-family: Helvetica; font-style: normal; font-variant-ligatures: normal; font-variant-caps: normal; letter-spacing: normal; orphans: 2; text-align: left; text-indent: 0px; text-transform: none; widows: 2; word-spacing: 0px; -webkit-text-stroke-width: 0px; white-space: normal; background-color: rgb(27, 29, 30); text-decoration-thickness: initial; text-decoration-style: initial; text-decoration-color: initial; float: none; display: inline !important;&quot;&gt;&lt;font style=&quot;font-size: 15px;&quot;&gt;View: Bibliothek&lt;/font&gt;&lt;/span&gt;&lt;/pre&gt;" style="text;whiteSpace=wrap;html=1;strokeColor=default;verticalAlign=top;" parent="1" vertex="1">
          <mxGeometry x="20" y="860" width="180" height="40" as="geometry" />
        </mxCell>
        <mxCell id="f_p-OuV4b7vRWUslF7y5-14" value="&lt;font style=&quot;font-size: 24px;&quot; face=&quot;Verdana&quot;&gt;Quizpool&lt;/font&gt;" style="text;html=1;align=center;verticalAlign=middle;whiteSpace=wrap;rounded=0;" parent="1" vertex="1">
          <mxGeometry x="37" y="1115" width="180" height="30" as="geometry" />
        </mxCell>
        <mxCell id="f_p-OuV4b7vRWUslF7y5-15" value="[Bibliothek]" style="text;html=1;points=[];align=left;verticalAlign=top;spacingTop=-4;fontSize=14;fontFamily=Verdana;fontStyle=4" parent="1" vertex="1">
          <mxGeometry x="600" y="975" width="60" height="20" as="geometry" />
        </mxCell>
        <mxCell id="f_p-OuV4b7vRWUslF7y5-16" value="[Einzelspieler]" style="text;html=1;points=[];align=left;verticalAlign=top;spacingTop=-4;fontSize=14;fontFamily=Verdana" parent="1" vertex="1">
          <mxGeometry x="690" y="975" width="60" height="20" as="geometry" />
        </mxCell>
        <mxCell id="f_p-OuV4b7vRWUslF7y5-17" value="[Mehrspieler]" style="text;html=1;points=[];align=left;verticalAlign=top;spacingTop=-4;fontSize=14;fontFamily=Verdana" parent="1" vertex="1">
          <mxGeometry x="800" y="975" width="60" height="20" as="geometry" />
        </mxCell>
        <mxCell id="f_p-OuV4b7vRWUslF7y5-18" value="[Profil]" style="text;html=1;points=[];align=left;verticalAlign=top;spacingTop=-4;fontSize=14;fontFamily=Verdana" parent="1" vertex="1">
          <mxGeometry x="910" y="975" width="60" height="20" as="geometry" />
        </mxCell>
        <mxCell id="f_p-OuV4b7vRWUslF7y5-19" value="[Logout]" style="text;html=1;points=[];align=left;verticalAlign=top;spacingTop=-4;fontSize=14;fontFamily=Verdana" parent="1" vertex="1">
          <mxGeometry x="970" y="975" width="60" height="20" as="geometry" />
        </mxCell>
        <mxCell id="f_p-OuV4b7vRWUslF7y5-20" value="Fragenpool hinzufügen" style="html=1;shadow=0;dashed=0;shape=mxgraph.bootstrap.rrect;align=center;rSize=5;strokeColor=none;fillColor=#3D8BCD;fontColor=#ffffff;fontSize=14;whiteSpace=wrap;rounded=0;movable=1;resizable=1;rotatable=1;deletable=1;editable=1;locked=0;connectable=1;fontFamily=Verdana;" parent="1" vertex="1">
          <mxGeometry x="40" y="1416" width="170" height="30" as="geometry" />
        </mxCell>
        <mxCell id="f_p-OuV4b7vRWUslF7y5-21" value="" style="whiteSpace=wrap;html=1;rounded=0;shadow=0;labelBackgroundColor=none;strokeWidth=1;fillColor=none;fontFamily=Verdana;fontSize=12;align=center;comic=1;" parent="1" vertex="1">
          <mxGeometry x="260" y="1100" width="340" height="570" as="geometry" />
        </mxCell>
        <mxCell id="f_p-OuV4b7vRWUslF7y5-22" value="[Frage 1]" style="text;html=1;points=[];align=left;verticalAlign=top;spacingTop=-4;fontSize=14;fontFamily=Verdana" parent="1" vertex="1">
          <mxGeometry x="277.5" y="1194" width="170" height="20" as="geometry" />
        </mxCell>
        <mxCell id="f_p-OuV4b7vRWUslF7y5-23" value="&lt;u&gt;[Frage 2]&lt;/u&gt;" style="text;html=1;points=[];align=left;verticalAlign=top;spacingTop=-4;fontSize=14;fontFamily=Verdana" parent="1" vertex="1">
          <mxGeometry x="277.5" y="1230" width="170" height="20" as="geometry" />
        </mxCell>
        <mxCell id="f_p-OuV4b7vRWUslF7y5-24" value="[Frage 3]" style="text;html=1;points=[];align=left;verticalAlign=top;spacingTop=-4;fontSize=14;fontFamily=Verdana" parent="1" vertex="1">
          <mxGeometry x="277.5" y="1265" width="170" height="20" as="geometry" />
        </mxCell>
        <mxCell id="f_p-OuV4b7vRWUslF7y5-25" value="[Frage 4]" style="text;html=1;points=[];align=left;verticalAlign=top;spacingTop=-4;fontSize=14;fontFamily=Verdana" parent="1" vertex="1">
          <mxGeometry x="277.5" y="1301" width="170" height="20" as="geometry" />
        </mxCell>
        <mxCell id="f_p-OuV4b7vRWUslF7y5-26" value="[Frage 5]" style="text;html=1;points=[];align=left;verticalAlign=top;spacingTop=-4;fontSize=14;fontFamily=Verdana" parent="1" vertex="1">
          <mxGeometry x="277.5" y="1337" width="170" height="20" as="geometry" />
        </mxCell>
        <mxCell id="f_p-OuV4b7vRWUslF7y5-29" value="&amp;lt;Antwortoption X&amp;gt;" style="html=1;shadow=0;dashed=0;shape=mxgraph.bootstrap.rrect;rSize=5;strokeColor=#dddddd;align=left;spacingLeft=10;fontSize=14;whiteSpace=wrap;rounded=0;movable=1;resizable=1;rotatable=1;deletable=1;editable=1;locked=0;connectable=1;fontFamily=Verdana;" parent="1" vertex="1">
          <mxGeometry x="670" y="1213" width="360" height="49" as="geometry" />
        </mxCell>
        <mxCell id="f_p-OuV4b7vRWUslF7y5-30" value="Quizpool löschen" style="html=1;shadow=0;dashed=0;shape=mxgraph.bootstrap.rrect;align=center;rSize=5;strokeColor=none;fillColor=#3D8BCD;fontColor=#ffffff;fontSize=14;whiteSpace=wrap;rounded=0;movable=1;resizable=1;rotatable=1;deletable=1;editable=1;locked=0;connectable=1;fontFamily=Verdana;" parent="1" vertex="1">
          <mxGeometry x="355" y="1570" width="150" height="30" as="geometry" />
        </mxCell>
        <mxCell id="f_p-OuV4b7vRWUslF7y5-31" value="Frage löschen" style="html=1;shadow=0;dashed=0;shape=mxgraph.bootstrap.rrect;align=center;rSize=5;strokeColor=none;fillColor=#3D8BCD;fontColor=#ffffff;fontSize=14;whiteSpace=wrap;rounded=0;movable=1;resizable=1;rotatable=1;deletable=1;editable=1;locked=0;connectable=1;fontFamily=Verdana;" parent="1" vertex="1">
          <mxGeometry x="775" y="1632" width="150" height="30" as="geometry" />
        </mxCell>
        <mxCell id="f_p-OuV4b7vRWUslF7y5-35" value="&amp;lt;Erklärung X&amp;gt;" style="html=1;shadow=0;dashed=0;shape=mxgraph.bootstrap.rrect;rSize=5;strokeColor=#dddddd;align=left;spacingLeft=10;fontSize=14;whiteSpace=wrap;rounded=0;movable=1;resizable=1;rotatable=1;deletable=1;editable=1;locked=0;connectable=1;fontFamily=Verdana;" parent="1" vertex="1">
          <mxGeometry x="670" y="1273" width="360" height="49" as="geometry" />
        </mxCell>
        <mxCell id="f_p-OuV4b7vRWUslF7y5-36" value="Antwort speichern" style="html=1;shadow=0;dashed=0;shape=mxgraph.bootstrap.rrect;align=center;rSize=5;strokeColor=none;fillColor=#3D8BCD;fontColor=#ffffff;fontSize=14;whiteSpace=wrap;rounded=0;movable=1;resizable=1;rotatable=1;deletable=1;editable=1;locked=0;connectable=1;fontFamily=Verdana;" parent="1" vertex="1">
          <mxGeometry x="880" y="1333" width="150" height="30" as="geometry" />
        </mxCell>
        <mxCell id="f_p-OuV4b7vRWUslF7y5-37" value="Richtig" style="strokeWidth=1;shadow=0;dashed=0;align=center;html=1;shape=mxgraph.mockup.buttons.onOffButton;gradientColor=none;strokeColor=#999999;buttonState=on;fillColor2=#008cff;fontColor=#ffffff;fontSize=9;mainText=;spacingRight=40;fontStyle=1;whiteSpace=wrap;fontFamily=Verdana;spacingLeft=21;" parent="1" vertex="1">
          <mxGeometry x="690" y="1333" width="72" height="20" as="geometry" />
        </mxCell>
        <mxCell id="f_p-OuV4b7vRWUslF7y5-40" value="" style="verticalLabelPosition=bottom;shadow=0;dashed=0;align=center;html=1;verticalAlign=top;strokeWidth=1;shape=mxgraph.mockup.forms.horSlider;strokeColor=#999999;sliderStyle=basic;sliderPos=51.073;handleStyle=circle;fillColor2=#ddeeff;direction=north;" parent="1" vertex="1">
          <mxGeometry x="570" y="1111" width="30" height="548" as="geometry" />
        </mxCell>
        <mxCell id="f_p-OuV4b7vRWUslF7y5-41" value="" style="verticalLabelPosition=bottom;shadow=0;dashed=0;align=center;html=1;verticalAlign=top;strokeWidth=1;shape=mxgraph.mockup.forms.horSlider;strokeColor=#999999;sliderStyle=basic;sliderPos=20.052;handleStyle=circle;fillColor2=#ddeeff;direction=north;" parent="1" vertex="1">
          <mxGeometry x="1040" y="1115" width="30" height="548" as="geometry" />
        </mxCell>
        <mxCell id="f_p-OuV4b7vRWUslF7y5-42" value="" style="verticalLabelPosition=bottom;shadow=0;dashed=0;align=center;html=1;verticalAlign=top;strokeWidth=1;shape=mxgraph.mockup.forms.horSlider;strokeColor=#999999;sliderStyle=basic;sliderPos=42.1;handleStyle=circle;fillColor2=#ddeeff;direction=north;" parent="1" vertex="1">
          <mxGeometry x="200" y="1107" width="30" height="548" as="geometry" />
        </mxCell>
        <mxCell id="f_p-OuV4b7vRWUslF7y5-46" value="&lt;font style=&quot;font-size: 20px;&quot; face=&quot;Verdana&quot;&gt;Frage bearbeiten&lt;/font&gt;" style="text;html=1;align=center;verticalAlign=middle;whiteSpace=wrap;rounded=0;" parent="1" vertex="1">
          <mxGeometry x="643" y="1115" width="180" height="30" as="geometry" />
        </mxCell>
        <mxCell id="f_p-OuV4b7vRWUslF7y5-47" value="Antwort hinzufügen" style="html=1;shadow=0;dashed=0;shape=mxgraph.bootstrap.rrect;align=center;rSize=5;strokeColor=none;fillColor=#3D8BCD;fontColor=#ffffff;fontSize=14;whiteSpace=wrap;rounded=0;movable=1;resizable=1;rotatable=1;deletable=1;editable=1;locked=0;connectable=1;fontFamily=Verdana;" parent="1" vertex="1">
          <mxGeometry x="775" y="1592" width="150" height="30" as="geometry" />
        </mxCell>
        <mxCell id="f_p-OuV4b7vRWUslF7y5-48" value="&lt;font style=&quot;font-size: 24px;&quot; face=&quot;Verdana&quot;&gt;Bibliothek&lt;/font&gt;" style="text;html=1;align=center;verticalAlign=middle;whiteSpace=wrap;rounded=0;" parent="1" vertex="1">
          <mxGeometry x="30" y="1055" width="180" height="30" as="geometry" />
        </mxCell>
        <mxCell id="f_p-OuV4b7vRWUslF7y5-49" value="&lt;font style=&quot;font-size: 24px;&quot; face=&quot;Verdana&quot;&gt;Fragen&lt;/font&gt;" style="text;html=1;align=center;verticalAlign=middle;whiteSpace=wrap;rounded=0;fontFamily=Helvetica;fontSize=12;fontColor=default;" parent="1" vertex="1">
          <mxGeometry x="340" y="1115" width="180" height="30" as="geometry" />
        </mxCell>
        <mxCell id="f_p-OuV4b7vRWUslF7y5-50" value="&lt;font style=&quot;font-size: 20px;&quot; face=&quot;Verdana&quot;&gt;Pool 1&lt;/font&gt;" style="text;html=1;align=center;verticalAlign=middle;whiteSpace=wrap;rounded=0;fontFamily=Helvetica;fontSize=12;fontColor=default;" parent="1" vertex="1">
          <mxGeometry x="240" y="1153" width="180" height="30" as="geometry" />
        </mxCell>
        <mxCell id="f_p-OuV4b7vRWUslF7y5-51" value="&lt;font style=&quot;font-size: 20px;&quot; face=&quot;Verdana&quot;&gt;Frage 2&lt;/font&gt;" style="text;html=1;align=center;verticalAlign=middle;whiteSpace=wrap;rounded=0;fontFamily=Helvetica;fontSize=12;fontColor=default;" parent="1" vertex="1">
          <mxGeometry x="610" y="1151" width="180" height="30" as="geometry" />
        </mxCell>
        <mxCell id="f_p-OuV4b7vRWUslF7y5-52" value="Frage ändern" style="html=1;shadow=0;dashed=0;shape=mxgraph.bootstrap.rrect;align=center;rSize=5;strokeColor=none;fillColor=#3D8BCD;fontColor=#ffffff;fontSize=14;whiteSpace=wrap;rounded=0;movable=1;resizable=1;rotatable=1;deletable=1;editable=1;locked=0;connectable=1;fontFamily=Verdana;" parent="1" vertex="1">
          <mxGeometry x="880" y="1153" width="150" height="30" as="geometry" />
        </mxCell>
        <mxCell id="f_p-OuV4b7vRWUslF7y5-53" value="Name ändern" style="html=1;shadow=0;dashed=0;shape=mxgraph.bootstrap.rrect;align=center;rSize=5;strokeColor=none;fillColor=#3D8BCD;fontColor=#ffffff;fontSize=14;whiteSpace=wrap;rounded=0;movable=1;resizable=1;rotatable=1;deletable=1;editable=1;locked=0;connectable=1;fontFamily=Verdana;" parent="1" vertex="1">
          <mxGeometry x="430" y="1510" width="140" height="30" as="geometry" />
        </mxCell>
        <mxCell id="pdzxmcTk3hKJVAjj3abB-1" value="&amp;lt;Fragenpool X&amp;gt;" style="html=1;shadow=0;dashed=0;shape=mxgraph.bootstrap.rrect;rSize=5;strokeColor=#dddddd;align=left;spacingLeft=10;fontSize=14;whiteSpace=wrap;rounded=0;movable=1;resizable=1;rotatable=1;deletable=1;editable=1;locked=0;connectable=1;fontFamily=Verdana;" parent="1" vertex="1">
          <mxGeometry x="40" y="1372.5" width="170" height="33.5" as="geometry" />
        </mxCell>
        <mxCell id="pdzxmcTk3hKJVAjj3abB-2" value="Frage hinzufügen" style="html=1;shadow=0;dashed=0;shape=mxgraph.bootstrap.rrect;align=center;rSize=5;strokeColor=none;fillColor=#3D8BCD;fontColor=#ffffff;fontSize=14;whiteSpace=wrap;rounded=0;movable=1;resizable=1;rotatable=1;deletable=1;editable=1;locked=0;connectable=1;fontFamily=Verdana;" parent="1" vertex="1">
          <mxGeometry x="427.5" y="1417.75" width="142.5" height="30" as="geometry" />
        </mxCell>
        <mxCell id="pdzxmcTk3hKJVAjj3abB-3" value="&amp;lt;Frage X&amp;gt;" style="html=1;shadow=0;dashed=0;shape=mxgraph.bootstrap.rrect;rSize=5;strokeColor=#dddddd;align=left;spacingLeft=10;fontSize=14;whiteSpace=wrap;rounded=0;movable=1;resizable=1;rotatable=1;deletable=1;editable=1;locked=0;connectable=1;fontFamily=Verdana;" parent="1" vertex="1">
          <mxGeometry x="277.5" y="1416" width="142.5" height="33.5" as="geometry" />
        </mxCell>
        <mxCell id="pdzxmcTk3hKJVAjj3abB-4" value="&amp;lt;Pool 1&amp;gt;" style="html=1;shadow=0;dashed=0;shape=mxgraph.bootstrap.rrect;rSize=5;strokeColor=#dddddd;align=left;spacingLeft=10;fontSize=14;whiteSpace=wrap;rounded=0;movable=1;resizable=1;rotatable=1;deletable=1;editable=1;locked=0;connectable=1;fontFamily=Verdana;" parent="1" vertex="1">
          <mxGeometry x="274.5" y="1506.5" width="142.5" height="33.5" as="geometry" />
        </mxCell>
        <mxCell id="pdzxmcTk3hKJVAjj3abB-9" value="Antwort löschen" style="html=1;shadow=0;dashed=0;shape=mxgraph.bootstrap.rrect;align=center;rSize=5;strokeColor=none;fillColor=#3D8BCD;fontColor=#ffffff;fontSize=14;whiteSpace=wrap;rounded=0;movable=1;resizable=1;rotatable=1;deletable=1;editable=1;locked=0;connectable=1;fontFamily=Verdana;" parent="1" vertex="1">
          <mxGeometry x="775" y="1378" width="150" height="30" as="geometry" />
        </mxCell>
        <mxCell id="pdzxmcTk3hKJVAjj3abB-15" value="Bis zu 4 Antwortoptionen&lt;div&gt;.&lt;/div&gt;&lt;div&gt;.&lt;/div&gt;&lt;div&gt;.&lt;/div&gt;" style="html=1;shadow=0;dashed=1;shape=mxgraph.bootstrap.rrect;rSize=5;strokeColor=#dddddd;align=center;spacingLeft=10;fontSize=14;whiteSpace=wrap;rounded=0;movable=1;resizable=1;rotatable=1;deletable=1;editable=1;locked=0;connectable=1;fontFamily=Verdana;" parent="1" vertex="1">
          <mxGeometry x="670" y="1446" width="360" height="80" as="geometry" />
        </mxCell>
        <mxCell id="PV48jueYwxhnAjO7wAuT-1" value="" style="whiteSpace=wrap;html=1;rounded=0;shadow=0;labelBackgroundColor=none;strokeWidth=1;fillColor=none;fontFamily=Verdana;fontSize=12;align=center;comic=1;" vertex="1" parent="1">
          <mxGeometry x="630" y="245" width="440" height="570" as="geometry" />
        </mxCell>
        <mxCell id="PV48jueYwxhnAjO7wAuT-2" value="" style="whiteSpace=wrap;html=1;rounded=0;shadow=0;labelBackgroundColor=none;strokeWidth=1;fillColor=none;fontFamily=Verdana;fontSize=12;align=center;comic=1;" vertex="1" parent="1">
          <mxGeometry x="660" y="347" width="380" height="133" as="geometry" />
        </mxCell>
        <mxCell id="PV48jueYwxhnAjO7wAuT-3" value="&amp;lt;Antwortoption X&amp;gt;" style="html=1;shadow=0;dashed=0;shape=mxgraph.bootstrap.rrect;rSize=5;strokeColor=#dddddd;align=left;spacingLeft=10;fontSize=14;whiteSpace=wrap;rounded=0;movable=1;resizable=1;rotatable=1;deletable=1;editable=1;locked=0;connectable=1;fontFamily=Verdana;" vertex="1" parent="1">
          <mxGeometry x="670" y="358" width="360" height="49" as="geometry" />
        </mxCell>
        <mxCell id="PV48jueYwxhnAjO7wAuT-4" value="&amp;lt;Erklärung X&amp;gt;" style="html=1;shadow=0;dashed=0;shape=mxgraph.bootstrap.rrect;rSize=5;strokeColor=#dddddd;align=left;spacingLeft=10;fontSize=14;whiteSpace=wrap;rounded=0;movable=1;resizable=1;rotatable=1;deletable=1;editable=1;locked=0;connectable=1;fontFamily=Verdana;" vertex="1" parent="1">
          <mxGeometry x="670" y="418" width="360" height="49" as="geometry" />
        </mxCell>
        <mxCell id="PV48jueYwxhnAjO7wAuT-5" value="&lt;font style=&quot;font-size: 20px;&quot; face=&quot;Verdana&quot;&gt;Frage bearbeiten&lt;/font&gt;" style="text;html=1;align=center;verticalAlign=middle;whiteSpace=wrap;rounded=0;" vertex="1" parent="1">
          <mxGeometry x="643" y="260" width="180" height="30" as="geometry" />
        </mxCell>
        <mxCell id="PV48jueYwxhnAjO7wAuT-6" value="&lt;font style=&quot;font-size: 20px;&quot; face=&quot;Verdana&quot;&gt;Frage 2&lt;/font&gt;" style="text;html=1;align=center;verticalAlign=middle;whiteSpace=wrap;rounded=0;fontFamily=Helvetica;fontSize=12;fontColor=default;" vertex="1" parent="1">
          <mxGeometry x="610" y="296" width="180" height="30" as="geometry" />
        </mxCell>
        <mxCell id="PV48jueYwxhnAjO7wAuT-13" value="Bis zu 4 Antwortoptionen&lt;div&gt;.&lt;/div&gt;&lt;div&gt;.&lt;/div&gt;&lt;div&gt;.&lt;/div&gt;" style="html=1;shadow=0;dashed=1;shape=mxgraph.bootstrap.rrect;rSize=5;strokeColor=#dddddd;align=center;spacingLeft=10;fontSize=14;whiteSpace=wrap;rounded=0;movable=1;resizable=1;rotatable=1;deletable=1;editable=1;locked=0;connectable=1;fontFamily=Verdana;" vertex="1" parent="1">
          <mxGeometry x="670" y="570" width="360" height="80" as="geometry" />
        </mxCell>
      </root>
    </mxGraphModel>
  </diagram>
  <diagram id="F5tvgWIkFxNV23zdMXiO" name="Singleplayer">
    <mxGraphModel dx="1671" dy="126" grid="1" gridSize="10" guides="1" tooltips="1" connect="1" arrows="1" fold="1" page="1" pageScale="1" pageWidth="1100" pageHeight="850" math="0" shadow="0">
      <root>
        <mxCell id="0" />
        <mxCell id="1" parent="0" />
        <mxCell id="DBaxcub1hoiklUv32fDf-76" value="" style="whiteSpace=wrap;html=1;rounded=0;shadow=0;labelBackgroundColor=none;strokeWidth=1;fillColor=none;fontFamily=Verdana;fontSize=12;align=center;comic=1;" parent="1" vertex="1">
          <mxGeometry x="250" y="7050" width="830" height="570" as="geometry" />
        </mxCell>
        <mxCell id="DBaxcub1hoiklUv32fDf-59" value="- % Richtige antworten&lt;div&gt;- % Durchschnitt aller Spiele in diesem Pool&lt;br&gt;&lt;div&gt;&lt;br&gt;&lt;/div&gt;&lt;/div&gt;" style="whiteSpace=wrap;html=1;rounded=0;shadow=0;labelBackgroundColor=none;strokeWidth=1;fillColor=none;fontFamily=Verdana;fontSize=12;align=center;comic=1;" parent="1" vertex="1">
          <mxGeometry x="465" y="7144.5" width="400" height="70.5" as="geometry" />
        </mxCell>
        <mxCell id="KuZ53aXXr-eTVpZsIPGP-36" value="" style="whiteSpace=wrap;html=1;rounded=0;shadow=0;labelBackgroundColor=none;strokeWidth=1;fillColor=none;fontFamily=Verdana;fontSize=12;align=center;comic=1;" parent="1" vertex="1">
          <mxGeometry x="250" y="2800" width="830" height="570" as="geometry" />
        </mxCell>
        <mxCell id="_zewoEcExGY73-txvpVY-19" value="&lt;pre&gt;&lt;span style=&quot;color: rgb(240, 240, 240); font-family: Helvetica; font-style: normal; font-variant-ligatures: normal; font-variant-caps: normal; letter-spacing: normal; orphans: 2; text-align: left; text-indent: 0px; text-transform: none; widows: 2; word-spacing: 0px; -webkit-text-stroke-width: 0px; white-space: normal; background-color: rgb(27, 29, 30); text-decoration-thickness: initial; text-decoration-style: initial; text-decoration-color: initial; float: none; display: inline !important;&quot;&gt;&lt;font style=&quot;font-size: 15px;&quot;&gt;View: Singleplayer - Neues Spiel&lt;/font&gt;&lt;/span&gt;&lt;/pre&gt;" style="text;whiteSpace=wrap;html=1;strokeColor=default;verticalAlign=middle;" parent="1" vertex="1">
          <mxGeometry x="20" y="1710" width="180" height="40" as="geometry" />
        </mxCell>
        <mxCell id="_G-SenmED6yrNQ690gtI-6" value="&lt;pre&gt;&lt;span style=&quot;color: rgb(240, 240, 240); font-family: Helvetica; font-style: normal; font-variant-ligatures: normal; font-variant-caps: normal; letter-spacing: normal; orphans: 2; text-align: left; text-indent: 0px; text-transform: none; widows: 2; word-spacing: 0px; -webkit-text-stroke-width: 0px; white-space: normal; background-color: rgb(27, 29, 30); text-decoration-thickness: initial; text-decoration-style: initial; text-decoration-color: initial; float: none; display: inline !important;&quot;&gt;&lt;font style=&quot;font-size: 15px;&quot;&gt;View: Singleplayer&lt;/font&gt;&lt;/span&gt;&lt;/pre&gt;" style="text;whiteSpace=wrap;html=1;strokeColor=default;verticalAlign=middle;" parent="1" vertex="1">
          <mxGeometry x="20" y="860" width="180" height="40" as="geometry" />
        </mxCell>
        <mxCell id="1r9j2Ir_rddbFyXfvEet-1" value="LOGO" style="whiteSpace=wrap;html=1;rounded=0;shadow=0;labelBackgroundColor=none;strokeWidth=1;fontFamily=Verdana;fontSize=28;align=center;comic=1;" parent="1" vertex="1">
          <mxGeometry x="38" y="975" width="190" height="50" as="geometry" />
        </mxCell>
        <mxCell id="1r9j2Ir_rddbFyXfvEet-2" value="&lt;div&gt;Rolle: default&lt;/div&gt;" style="text;html=1;align=left;verticalAlign=middle;whiteSpace=wrap;rounded=0;spacing=2;strokeColor=default;" parent="1" vertex="1">
          <mxGeometry x="20" y="900" width="180" height="40" as="geometry" />
        </mxCell>
        <mxCell id="1r9j2Ir_rddbFyXfvEet-3" value="Menü für das Einzelspieler Quiz, mit den Optionen:&lt;div&gt;- Neues Spiel beginnen.&lt;/div&gt;&lt;div&gt;nicht-beendetes Spiel fortsetzen&lt;/div&gt;&lt;div&gt;- Ergebnisse beendeter Spiele ansehen&amp;nbsp;&lt;/div&gt;" style="text;html=1;align=center;verticalAlign=middle;whiteSpace=wrap;rounded=0;strokeColor=default;" parent="1" vertex="1">
          <mxGeometry x="210" y="860" width="430" height="80" as="geometry" />
        </mxCell>
        <mxCell id="1r9j2Ir_rddbFyXfvEet-4" value="Navigation:&lt;div&gt;&lt;ul style=&quot;font-size: 10px;&quot;&gt;&lt;li&gt;UF7 - Einzelspieler, Option wählen&lt;br&gt;&lt;/li&gt;&lt;/ul&gt;&lt;/div&gt;" style="text;html=1;align=left;verticalAlign=top;whiteSpace=wrap;rounded=0;textShadow=0;strokeColor=default;" parent="1" vertex="1">
          <mxGeometry x="660" y="860" width="420" height="80" as="geometry" />
        </mxCell>
        <mxCell id="1r9j2Ir_rddbFyXfvEet-7" value="[Einzelspieler]" style="text;html=1;points=[];align=left;verticalAlign=top;spacingTop=-4;fontSize=14;fontFamily=Verdana;fontStyle=4" parent="1" vertex="1">
          <mxGeometry x="690" y="975" width="60" height="20" as="geometry" />
        </mxCell>
        <mxCell id="1r9j2Ir_rddbFyXfvEet-8" value="[Mehrspieler]" style="text;html=1;points=[];align=left;verticalAlign=top;spacingTop=-4;fontSize=14;fontFamily=Verdana" parent="1" vertex="1">
          <mxGeometry x="800" y="975" width="60" height="20" as="geometry" />
        </mxCell>
        <mxCell id="1r9j2Ir_rddbFyXfvEet-9" value="[Profil]" style="text;html=1;points=[];align=left;verticalAlign=top;spacingTop=-4;fontSize=14;fontFamily=Verdana" parent="1" vertex="1">
          <mxGeometry x="910" y="975" width="60" height="20" as="geometry" />
        </mxCell>
        <mxCell id="1r9j2Ir_rddbFyXfvEet-10" value="[Logout]" style="text;html=1;points=[];align=left;verticalAlign=top;spacingTop=-4;fontSize=14;fontFamily=Verdana" parent="1" vertex="1">
          <mxGeometry x="970" y="975" width="60" height="20" as="geometry" />
        </mxCell>
        <mxCell id="_G-SenmED6yrNQ690gtI-2" value="" style="line;strokeWidth=1;html=1;rounded=0;shadow=0;labelBackgroundColor=none;fillColor=none;fontFamily=Verdana;fontSize=14;fontColor=#000000;align=center;comic=1;" parent="1" vertex="1">
          <mxGeometry x="20" y="1040" width="1060" height="10" as="geometry" />
        </mxCell>
        <mxCell id="_G-SenmED6yrNQ690gtI-3" value="&lt;div&gt;Rolle: default&lt;/div&gt;" style="text;html=1;align=left;verticalAlign=middle;whiteSpace=wrap;rounded=0;spacing=2;strokeColor=default;" parent="1" vertex="1">
          <mxGeometry x="20" y="900" width="180" height="40" as="geometry" />
        </mxCell>
        <mxCell id="_G-SenmED6yrNQ690gtI-12" value="&lt;font style=&quot;font-size: 24px;&quot; face=&quot;Verdana&quot;&gt;Einzelspieler&lt;/font&gt;" style="text;html=1;align=center;verticalAlign=middle;whiteSpace=wrap;rounded=0;" parent="1" vertex="1">
          <mxGeometry x="30" y="1055" width="180" height="30" as="geometry" />
        </mxCell>
        <mxCell id="hYrKvnQBr6ZYP6nEXADv-11" value="" style="whiteSpace=wrap;html=1;rounded=0;shadow=0;labelBackgroundColor=none;strokeWidth=1;fillColor=none;fontFamily=Verdana;fontSize=12;align=center;comic=1;" parent="1" vertex="1">
          <mxGeometry x="20" y="1100" width="1060" height="570" as="geometry" />
        </mxCell>
        <mxCell id="n5hT1NLZzJ4viOjG3fB4-1" value="Neues Spiel" style="html=1;shadow=0;dashed=0;shape=mxgraph.bootstrap.rrect;align=center;rSize=5;strokeColor=none;fillColor=#3D8BCD;fontColor=#ffffff;fontSize=14;whiteSpace=wrap;rounded=0;movable=1;resizable=1;rotatable=1;deletable=1;editable=1;locked=0;connectable=1;fontFamily=Verdana;" parent="1" vertex="1">
          <mxGeometry x="475" y="1245" width="150" height="30" as="geometry" />
        </mxCell>
        <mxCell id="n5hT1NLZzJ4viOjG3fB4-2" value="Spiel fortsetzen" style="html=1;shadow=0;dashed=0;shape=mxgraph.bootstrap.rrect;align=center;rSize=5;strokeColor=none;fillColor=#3D8BCD;fontColor=#ffffff;fontSize=14;whiteSpace=wrap;rounded=0;movable=1;resizable=1;rotatable=1;deletable=1;editable=1;locked=0;connectable=1;fontFamily=Verdana;" parent="1" vertex="1">
          <mxGeometry x="475" y="1292" width="150" height="30" as="geometry" />
        </mxCell>
        <mxCell id="_zewoEcExGY73-txvpVY-3" value="[Bibliothek]" style="text;html=1;points=[];align=left;verticalAlign=top;spacingTop=-4;fontSize=14;fontFamily=Verdana" parent="1" vertex="1">
          <mxGeometry x="590" y="975" width="60" height="20" as="geometry" />
        </mxCell>
        <mxCell id="_zewoEcExGY73-txvpVY-4" value="Historie" style="html=1;shadow=0;dashed=0;shape=mxgraph.bootstrap.rrect;align=center;rSize=5;strokeColor=none;fillColor=#3D8BCD;fontColor=#ffffff;fontSize=14;whiteSpace=wrap;rounded=0;movable=1;resizable=1;rotatable=1;deletable=1;editable=1;locked=0;connectable=1;fontFamily=Verdana;" parent="1" vertex="1">
          <mxGeometry x="475" y="1340" width="150" height="30" as="geometry" />
        </mxCell>
        <mxCell id="_zewoEcExGY73-txvpVY-5" value="LOGO" style="whiteSpace=wrap;html=1;rounded=0;shadow=0;labelBackgroundColor=none;strokeWidth=1;fontFamily=Verdana;fontSize=28;align=center;comic=1;" parent="1" vertex="1">
          <mxGeometry x="38" y="1825" width="190" height="50" as="geometry" />
        </mxCell>
        <mxCell id="_zewoEcExGY73-txvpVY-6" value="&lt;div&gt;Rolle: default&lt;/div&gt;" style="text;html=1;align=left;verticalAlign=middle;whiteSpace=wrap;rounded=0;spacing=2;strokeColor=default;" parent="1" vertex="1">
          <mxGeometry x="20" y="1750" width="180" height="40" as="geometry" />
        </mxCell>
        <mxCell id="_zewoEcExGY73-txvpVY-7" value="Menü für die Auswahl eines Quizpools, um ein Quiz im Einzelspielermodus zu starten." style="text;html=1;align=center;verticalAlign=middle;whiteSpace=wrap;rounded=0;strokeColor=default;" parent="1" vertex="1">
          <mxGeometry x="210" y="1710" width="430" height="80" as="geometry" />
        </mxCell>
        <mxCell id="_zewoEcExGY73-txvpVY-8" value="Navigation:&lt;div&gt;&lt;ul style=&quot;font-size: 10px;&quot;&gt;&lt;li&gt;UF8 - EInzelspieler - Spiel starten&lt;br&gt;&lt;/li&gt;&lt;/ul&gt;&lt;/div&gt;" style="text;html=1;align=left;verticalAlign=top;whiteSpace=wrap;rounded=0;textShadow=0;strokeColor=default;" parent="1" vertex="1">
          <mxGeometry x="660" y="1710" width="420" height="80" as="geometry" />
        </mxCell>
        <mxCell id="_zewoEcExGY73-txvpVY-10" value="[Einzelspieler]" style="text;html=1;points=[];align=left;verticalAlign=top;spacingTop=-4;fontSize=14;fontFamily=Verdana;fontStyle=4" parent="1" vertex="1">
          <mxGeometry x="690" y="1825" width="60" height="20" as="geometry" />
        </mxCell>
        <mxCell id="_zewoEcExGY73-txvpVY-11" value="[Mehrspieler]" style="text;html=1;points=[];align=left;verticalAlign=top;spacingTop=-4;fontSize=14;fontFamily=Verdana" parent="1" vertex="1">
          <mxGeometry x="800" y="1825" width="60" height="20" as="geometry" />
        </mxCell>
        <mxCell id="_zewoEcExGY73-txvpVY-12" value="[Profil]" style="text;html=1;points=[];align=left;verticalAlign=top;spacingTop=-4;fontSize=14;fontFamily=Verdana" parent="1" vertex="1">
          <mxGeometry x="910" y="1825" width="60" height="20" as="geometry" />
        </mxCell>
        <mxCell id="_zewoEcExGY73-txvpVY-13" value="[Logout]" style="text;html=1;points=[];align=left;verticalAlign=top;spacingTop=-4;fontSize=14;fontFamily=Verdana" parent="1" vertex="1">
          <mxGeometry x="970" y="1825" width="60" height="20" as="geometry" />
        </mxCell>
        <mxCell id="_zewoEcExGY73-txvpVY-14" value="LOGO" style="whiteSpace=wrap;html=1;rounded=0;shadow=0;labelBackgroundColor=none;strokeWidth=1;fontFamily=Verdana;fontSize=28;align=center;comic=1;" parent="1" vertex="1">
          <mxGeometry x="38" y="1825" width="190" height="50" as="geometry" />
        </mxCell>
        <mxCell id="_zewoEcExGY73-txvpVY-15" value="" style="line;strokeWidth=1;html=1;rounded=0;shadow=0;labelBackgroundColor=none;fillColor=none;fontFamily=Verdana;fontSize=14;fontColor=#000000;align=center;comic=1;" parent="1" vertex="1">
          <mxGeometry x="20" y="1890" width="1060" height="10" as="geometry" />
        </mxCell>
        <mxCell id="_zewoEcExGY73-txvpVY-24" value="&lt;font style=&quot;font-size: 24px;&quot; face=&quot;Verdana&quot;&gt;Einzelspieler&lt;/font&gt;" style="text;html=1;align=center;verticalAlign=middle;whiteSpace=wrap;rounded=0;" parent="1" vertex="1">
          <mxGeometry x="30" y="1905" width="180" height="30" as="geometry" />
        </mxCell>
        <mxCell id="_zewoEcExGY73-txvpVY-35" value="[Bibliothek]" style="text;html=1;points=[];align=left;verticalAlign=top;spacingTop=-4;fontSize=14;fontFamily=Verdana" parent="1" vertex="1">
          <mxGeometry x="590" y="1825" width="60" height="20" as="geometry" />
        </mxCell>
        <mxCell id="_zewoEcExGY73-txvpVY-38" value="&lt;pre&gt;&lt;span style=&quot;color: rgb(240, 240, 240); font-family: Helvetica; font-style: normal; font-variant-ligatures: normal; font-variant-caps: normal; letter-spacing: normal; orphans: 2; text-align: left; text-indent: 0px; text-transform: none; widows: 2; word-spacing: 0px; -webkit-text-stroke-width: 0px; white-space: normal; background-color: rgb(27, 29, 30); text-decoration-thickness: initial; text-decoration-style: initial; text-decoration-color: initial; float: none; display: inline !important;&quot;&gt;&lt;font style=&quot;font-size: 15px;&quot;&gt;View: Singleplayer- Spiel 1&lt;/font&gt;&lt;/span&gt;&lt;/pre&gt;" style="text;whiteSpace=wrap;html=1;strokeColor=default;verticalAlign=middle;" parent="1" vertex="1">
          <mxGeometry x="20" y="2560" width="180" height="40" as="geometry" />
        </mxCell>
        <mxCell id="_zewoEcExGY73-txvpVY-39" value="LOGO" style="whiteSpace=wrap;html=1;rounded=0;shadow=0;labelBackgroundColor=none;strokeWidth=1;fontFamily=Verdana;fontSize=28;align=center;comic=1;" parent="1" vertex="1">
          <mxGeometry x="38" y="2675" width="190" height="50" as="geometry" />
        </mxCell>
        <mxCell id="_zewoEcExGY73-txvpVY-40" value="&lt;div&gt;Rolle: default&lt;/div&gt;" style="text;html=1;align=left;verticalAlign=middle;whiteSpace=wrap;rounded=0;spacing=2;strokeColor=default;" parent="1" vertex="1">
          <mxGeometry x="20" y="2600" width="180" height="40" as="geometry" />
        </mxCell>
        <mxCell id="_zewoEcExGY73-txvpVY-41" value="Menü für die Durchführung eines Spiels. Hier Frage auswählen." style="text;html=1;align=center;verticalAlign=middle;whiteSpace=wrap;rounded=0;strokeColor=default;" parent="1" vertex="1">
          <mxGeometry x="210" y="2560" width="430" height="80" as="geometry" />
        </mxCell>
        <mxCell id="_zewoEcExGY73-txvpVY-42" value="Navigation:&lt;div&gt;&lt;ul style=&quot;font-size: 10px;&quot;&gt;&lt;li&gt;UF9 - Einzelspieler - Spielen&amp;nbsp;&lt;br&gt;&lt;/li&gt;&lt;/ul&gt;&lt;/div&gt;" style="text;html=1;align=left;verticalAlign=top;whiteSpace=wrap;rounded=0;textShadow=0;strokeColor=default;" parent="1" vertex="1">
          <mxGeometry x="660" y="2560" width="420" height="80" as="geometry" />
        </mxCell>
        <mxCell id="_zewoEcExGY73-txvpVY-44" value="[Einzelspieler]" style="text;html=1;points=[];align=left;verticalAlign=top;spacingTop=-4;fontSize=14;fontFamily=Verdana;fontStyle=4" parent="1" vertex="1">
          <mxGeometry x="690" y="2675" width="60" height="20" as="geometry" />
        </mxCell>
        <mxCell id="_zewoEcExGY73-txvpVY-45" value="[Mehrspieler]" style="text;html=1;points=[];align=left;verticalAlign=top;spacingTop=-4;fontSize=14;fontFamily=Verdana" parent="1" vertex="1">
          <mxGeometry x="800" y="2675" width="60" height="20" as="geometry" />
        </mxCell>
        <mxCell id="_zewoEcExGY73-txvpVY-46" value="[Profil]" style="text;html=1;points=[];align=left;verticalAlign=top;spacingTop=-4;fontSize=14;fontFamily=Verdana" parent="1" vertex="1">
          <mxGeometry x="910" y="2675" width="60" height="20" as="geometry" />
        </mxCell>
        <mxCell id="_zewoEcExGY73-txvpVY-47" value="[Logout]" style="text;html=1;points=[];align=left;verticalAlign=top;spacingTop=-4;fontSize=14;fontFamily=Verdana" parent="1" vertex="1">
          <mxGeometry x="970" y="2675" width="60" height="20" as="geometry" />
        </mxCell>
        <mxCell id="_zewoEcExGY73-txvpVY-49" value="" style="line;strokeWidth=1;html=1;rounded=0;shadow=0;labelBackgroundColor=none;fillColor=none;fontFamily=Verdana;fontSize=14;fontColor=#000000;align=center;comic=1;" parent="1" vertex="1">
          <mxGeometry x="20" y="2740" width="1060" height="10" as="geometry" />
        </mxCell>
        <mxCell id="_zewoEcExGY73-txvpVY-57" value="&lt;font style=&quot;font-size: 24px;&quot; face=&quot;Verdana&quot;&gt;Einzelspieler&lt;/font&gt;" style="text;html=1;align=center;verticalAlign=middle;whiteSpace=wrap;rounded=0;" parent="1" vertex="1">
          <mxGeometry x="30" y="2755" width="180" height="30" as="geometry" />
        </mxCell>
        <mxCell id="_zewoEcExGY73-txvpVY-66" value="[Bibliothek]" style="text;html=1;points=[];align=left;verticalAlign=top;spacingTop=-4;fontSize=14;fontFamily=Verdana" parent="1" vertex="1">
          <mxGeometry x="590" y="2675" width="60" height="20" as="geometry" />
        </mxCell>
        <mxCell id="_zewoEcExGY73-txvpVY-68" value="&lt;pre&gt;&lt;span style=&quot;color: rgb(240, 240, 240); font-family: Helvetica; font-style: normal; font-variant-ligatures: normal; font-variant-caps: normal; letter-spacing: normal; orphans: 2; text-align: left; text-indent: 0px; text-transform: none; widows: 2; word-spacing: 0px; -webkit-text-stroke-width: 0px; white-space: normal; background-color: rgb(27, 29, 30); text-decoration-thickness: initial; text-decoration-style: initial; text-decoration-color: initial; float: none; display: inline !important;&quot;&gt;&lt;font style=&quot;font-size: 15px;&quot;&gt;View: Singleplayer- Historie&lt;/font&gt;&lt;/span&gt;&lt;/pre&gt;" style="text;whiteSpace=wrap;html=1;strokeColor=default;verticalAlign=middle;" parent="1" vertex="1">
          <mxGeometry x="20" y="6810" width="180" height="40" as="geometry" />
        </mxCell>
        <mxCell id="_zewoEcExGY73-txvpVY-69" value="LOGO" style="whiteSpace=wrap;html=1;rounded=0;shadow=0;labelBackgroundColor=none;strokeWidth=1;fontFamily=Verdana;fontSize=28;align=center;comic=1;" parent="1" vertex="1">
          <mxGeometry x="38" y="6925" width="190" height="50" as="geometry" />
        </mxCell>
        <mxCell id="_zewoEcExGY73-txvpVY-70" value="&lt;div&gt;Rolle: default&lt;/div&gt;" style="text;html=1;align=left;verticalAlign=middle;whiteSpace=wrap;rounded=0;spacing=2;strokeColor=default;" parent="1" vertex="1">
          <mxGeometry x="20" y="6850" width="180" height="40" as="geometry" />
        </mxCell>
        <mxCell id="_zewoEcExGY73-txvpVY-71" value="&lt;span style=&quot;font-size: 9px;&quot;&gt;Menüzum Anzeigen der Ergebnisse abgeschlossener Vergangener Spiele.&lt;/span&gt;" style="text;html=1;align=center;verticalAlign=middle;whiteSpace=wrap;rounded=0;strokeColor=default;" parent="1" vertex="1">
          <mxGeometry x="210" y="6810" width="430" height="80" as="geometry" />
        </mxCell>
        <mxCell id="_zewoEcExGY73-txvpVY-72" value="Navigation:&lt;div&gt;&lt;ul style=&quot;font-size: 10px;&quot;&gt;&lt;li&gt;UF11 - Historie anzeigen&amp;nbsp;&amp;nbsp;&lt;br&gt;&lt;/li&gt;&lt;/ul&gt;&lt;/div&gt;" style="text;html=1;align=left;verticalAlign=top;whiteSpace=wrap;rounded=0;textShadow=0;strokeColor=default;" parent="1" vertex="1">
          <mxGeometry x="660" y="6810" width="420" height="80" as="geometry" />
        </mxCell>
        <mxCell id="_zewoEcExGY73-txvpVY-74" value="[Einzelspieler]" style="text;html=1;points=[];align=left;verticalAlign=top;spacingTop=-4;fontSize=14;fontFamily=Verdana;fontStyle=4" parent="1" vertex="1">
          <mxGeometry x="690" y="6925" width="60" height="20" as="geometry" />
        </mxCell>
        <mxCell id="_zewoEcExGY73-txvpVY-75" value="[Mehrspieler]" style="text;html=1;points=[];align=left;verticalAlign=top;spacingTop=-4;fontSize=14;fontFamily=Verdana" parent="1" vertex="1">
          <mxGeometry x="800" y="6925" width="60" height="20" as="geometry" />
        </mxCell>
        <mxCell id="_zewoEcExGY73-txvpVY-76" value="[Profil]" style="text;html=1;points=[];align=left;verticalAlign=top;spacingTop=-4;fontSize=14;fontFamily=Verdana" parent="1" vertex="1">
          <mxGeometry x="910" y="6925" width="60" height="20" as="geometry" />
        </mxCell>
        <mxCell id="_zewoEcExGY73-txvpVY-77" value="[Logout]" style="text;html=1;points=[];align=left;verticalAlign=top;spacingTop=-4;fontSize=14;fontFamily=Verdana" parent="1" vertex="1">
          <mxGeometry x="970" y="6925" width="60" height="20" as="geometry" />
        </mxCell>
        <mxCell id="_zewoEcExGY73-txvpVY-79" value="" style="line;strokeWidth=1;html=1;rounded=0;shadow=0;labelBackgroundColor=none;fillColor=none;fontFamily=Verdana;fontSize=14;fontColor=#000000;align=center;comic=1;" parent="1" vertex="1">
          <mxGeometry x="20" y="6990" width="1060" height="10" as="geometry" />
        </mxCell>
        <mxCell id="_zewoEcExGY73-txvpVY-87" value="&lt;font style=&quot;font-size: 24px;&quot; face=&quot;Verdana&quot;&gt;Einzelspieler&lt;/font&gt;" style="text;html=1;align=center;verticalAlign=middle;whiteSpace=wrap;rounded=0;" parent="1" vertex="1">
          <mxGeometry x="30" y="7005" width="180" height="30" as="geometry" />
        </mxCell>
        <mxCell id="_zewoEcExGY73-txvpVY-88" value="" style="whiteSpace=wrap;html=1;rounded=0;shadow=0;labelBackgroundColor=none;strokeWidth=1;fillColor=none;fontFamily=Verdana;fontSize=12;align=center;comic=1;" parent="1" vertex="1">
          <mxGeometry x="20" y="7050" width="200" height="570" as="geometry" />
        </mxCell>
        <mxCell id="_zewoEcExGY73-txvpVY-89" value="&lt;u&gt;[Pool 1 &amp;lt;Datum&amp;gt;]&lt;/u&gt;" style="text;html=1;points=[];align=left;verticalAlign=top;spacingTop=-4;fontSize=14;fontFamily=Verdana" parent="1" vertex="1">
          <mxGeometry x="45" y="7115" width="170" height="20" as="geometry" />
        </mxCell>
        <mxCell id="_zewoEcExGY73-txvpVY-90" value="&lt;u&gt;[Pool 2 &amp;lt;Datum&amp;gt;]&lt;/u&gt;" style="text;html=1;points=[];align=left;verticalAlign=top;spacingTop=-4;fontSize=14;fontFamily=Verdana" parent="1" vertex="1">
          <mxGeometry x="45" y="7151" width="170" height="20" as="geometry" />
        </mxCell>
        <mxCell id="_zewoEcExGY73-txvpVY-92" value="[...]" style="text;html=1;points=[];align=left;verticalAlign=top;spacingTop=-4;fontSize=14;fontFamily=Verdana" parent="1" vertex="1">
          <mxGeometry x="45" y="7190" width="170" height="20" as="geometry" />
        </mxCell>
        <mxCell id="_zewoEcExGY73-txvpVY-93" value="&lt;font style=&quot;font-size: 24px;&quot; face=&quot;Verdana&quot;&gt;Historie&lt;/font&gt;" style="text;html=1;align=center;verticalAlign=middle;whiteSpace=wrap;rounded=0;" parent="1" vertex="1">
          <mxGeometry x="37" y="7065" width="180" height="30" as="geometry" />
        </mxCell>
        <mxCell id="_zewoEcExGY73-txvpVY-94" value="" style="verticalLabelPosition=bottom;shadow=0;dashed=0;align=center;html=1;verticalAlign=top;strokeWidth=1;shape=mxgraph.mockup.forms.horSlider;strokeColor=#999999;sliderStyle=basic;sliderPos=42.1;handleStyle=circle;fillColor2=#ddeeff;direction=north;" parent="1" vertex="1">
          <mxGeometry x="190" y="7061" width="30" height="548" as="geometry" />
        </mxCell>
        <mxCell id="_zewoEcExGY73-txvpVY-96" value="[Bibliothek]" style="text;html=1;points=[];align=left;verticalAlign=top;spacingTop=-4;fontSize=14;fontFamily=Verdana" parent="1" vertex="1">
          <mxGeometry x="590" y="6925" width="60" height="20" as="geometry" />
        </mxCell>
        <mxCell id="KuZ53aXXr-eTVpZsIPGP-1" value="" style="whiteSpace=wrap;html=1;rounded=0;shadow=0;labelBackgroundColor=none;strokeWidth=1;fillColor=none;fontFamily=Verdana;fontSize=12;align=center;comic=1;" parent="1" vertex="1">
          <mxGeometry x="20" y="1950" width="200" height="570" as="geometry" />
        </mxCell>
        <mxCell id="KuZ53aXXr-eTVpZsIPGP-2" value="&lt;u&gt;[Pool 1]&lt;/u&gt;" style="text;html=1;points=[];align=left;verticalAlign=top;spacingTop=-4;fontSize=14;fontFamily=Verdana" parent="1" vertex="1">
          <mxGeometry x="35" y="2015" width="170" height="20" as="geometry" />
        </mxCell>
        <mxCell id="KuZ53aXXr-eTVpZsIPGP-3" value="[Pool 2]" style="text;html=1;points=[];align=left;verticalAlign=top;spacingTop=-4;fontSize=14;fontFamily=Verdana" parent="1" vertex="1">
          <mxGeometry x="35" y="2051" width="170" height="20" as="geometry" />
        </mxCell>
        <mxCell id="KuZ53aXXr-eTVpZsIPGP-4" value="[Pool 3]" style="text;html=1;points=[];align=left;verticalAlign=top;spacingTop=-4;fontSize=14;fontFamily=Verdana" parent="1" vertex="1">
          <mxGeometry x="35" y="2086" width="170" height="20" as="geometry" />
        </mxCell>
        <mxCell id="KuZ53aXXr-eTVpZsIPGP-5" value="[Pool 4]" style="text;html=1;points=[];align=left;verticalAlign=top;spacingTop=-4;fontSize=14;fontFamily=Verdana" parent="1" vertex="1">
          <mxGeometry x="35" y="2122" width="170" height="20" as="geometry" />
        </mxCell>
        <mxCell id="KuZ53aXXr-eTVpZsIPGP-6" value="[Pool 5]" style="text;html=1;points=[];align=left;verticalAlign=top;spacingTop=-4;fontSize=14;fontFamily=Verdana" parent="1" vertex="1">
          <mxGeometry x="35" y="2158" width="170" height="20" as="geometry" />
        </mxCell>
        <mxCell id="KuZ53aXXr-eTVpZsIPGP-7" value="&lt;font style=&quot;font-size: 24px;&quot; face=&quot;Verdana&quot;&gt;Quizpool&lt;/font&gt;" style="text;html=1;align=center;verticalAlign=middle;whiteSpace=wrap;rounded=0;" parent="1" vertex="1">
          <mxGeometry x="27" y="1965" width="180" height="30" as="geometry" />
        </mxCell>
        <mxCell id="KuZ53aXXr-eTVpZsIPGP-9" value="" style="whiteSpace=wrap;html=1;rounded=0;shadow=0;labelBackgroundColor=none;strokeWidth=1;fillColor=none;fontFamily=Verdana;fontSize=12;align=center;comic=1;" parent="1" vertex="1">
          <mxGeometry x="250" y="1950" width="340" height="570" as="geometry" />
        </mxCell>
        <mxCell id="KuZ53aXXr-eTVpZsIPGP-10" value="Frage 1" style="text;html=1;points=[];align=left;verticalAlign=top;spacingTop=-4;fontSize=14;fontFamily=Verdana" parent="1" vertex="1">
          <mxGeometry x="267.5" y="2044" width="170" height="20" as="geometry" />
        </mxCell>
        <mxCell id="KuZ53aXXr-eTVpZsIPGP-11" value="&lt;span&gt;Frage 2&lt;/span&gt;" style="text;html=1;points=[];align=left;verticalAlign=top;spacingTop=-4;fontSize=14;fontFamily=Verdana;fontStyle=0" parent="1" vertex="1">
          <mxGeometry x="267.5" y="2080" width="170" height="20" as="geometry" />
        </mxCell>
        <mxCell id="KuZ53aXXr-eTVpZsIPGP-12" value="Frage 3" style="text;html=1;points=[];align=left;verticalAlign=top;spacingTop=-4;fontSize=14;fontFamily=Verdana" parent="1" vertex="1">
          <mxGeometry x="267.5" y="2115" width="170" height="20" as="geometry" />
        </mxCell>
        <mxCell id="KuZ53aXXr-eTVpZsIPGP-13" value="Frage 4" style="text;html=1;points=[];align=left;verticalAlign=top;spacingTop=-4;fontSize=14;fontFamily=Verdana" parent="1" vertex="1">
          <mxGeometry x="267.5" y="2151" width="170" height="20" as="geometry" />
        </mxCell>
        <mxCell id="KuZ53aXXr-eTVpZsIPGP-14" value="Frage 5" style="text;html=1;points=[];align=left;verticalAlign=top;spacingTop=-4;fontSize=14;fontFamily=Verdana" parent="1" vertex="1">
          <mxGeometry x="267.5" y="2187" width="170" height="20" as="geometry" />
        </mxCell>
        <mxCell id="KuZ53aXXr-eTVpZsIPGP-16" value="" style="verticalLabelPosition=bottom;shadow=0;dashed=0;align=center;html=1;verticalAlign=top;strokeWidth=1;shape=mxgraph.mockup.forms.horSlider;strokeColor=#999999;sliderStyle=basic;sliderPos=51.073;handleStyle=circle;fillColor2=#ddeeff;direction=north;" parent="1" vertex="1">
          <mxGeometry x="560" y="1961" width="30" height="548" as="geometry" />
        </mxCell>
        <mxCell id="KuZ53aXXr-eTVpZsIPGP-17" value="" style="verticalLabelPosition=bottom;shadow=0;dashed=0;align=center;html=1;verticalAlign=top;strokeWidth=1;shape=mxgraph.mockup.forms.horSlider;strokeColor=#999999;sliderStyle=basic;sliderPos=42.1;handleStyle=circle;fillColor2=#ddeeff;direction=north;" parent="1" vertex="1">
          <mxGeometry x="190" y="1957" width="30" height="548" as="geometry" />
        </mxCell>
        <mxCell id="KuZ53aXXr-eTVpZsIPGP-18" value="&lt;font style=&quot;font-size: 24px;&quot; face=&quot;Verdana&quot;&gt;Fragen&lt;/font&gt;" style="text;html=1;align=center;verticalAlign=middle;whiteSpace=wrap;rounded=0;fontFamily=Helvetica;fontSize=12;fontColor=default;" parent="1" vertex="1">
          <mxGeometry x="330" y="1965" width="180" height="30" as="geometry" />
        </mxCell>
        <mxCell id="KuZ53aXXr-eTVpZsIPGP-19" value="&lt;font style=&quot;font-size: 20px;&quot; face=&quot;Verdana&quot;&gt;Pool 1&lt;/font&gt;" style="text;html=1;align=center;verticalAlign=middle;whiteSpace=wrap;rounded=0;fontFamily=Helvetica;fontSize=12;fontColor=default;" parent="1" vertex="1">
          <mxGeometry x="230" y="2003" width="180" height="30" as="geometry" />
        </mxCell>
        <mxCell id="KuZ53aXXr-eTVpZsIPGP-25" value="" style="whiteSpace=wrap;html=1;rounded=0;shadow=0;labelBackgroundColor=none;strokeWidth=1;fillColor=none;fontFamily=Verdana;fontSize=12;align=center;comic=1;" parent="1" vertex="1">
          <mxGeometry x="625" y="1950" width="455" height="570" as="geometry" />
        </mxCell>
        <mxCell id="KuZ53aXXr-eTVpZsIPGP-26" value="&lt;font style=&quot;font-size: 24px;&quot; face=&quot;Verdana&quot;&gt;Pool 1&lt;/font&gt;" style="text;html=1;align=center;verticalAlign=middle;whiteSpace=wrap;rounded=0;" parent="1" vertex="1">
          <mxGeometry x="717.5" y="2128" width="270" height="30" as="geometry" />
        </mxCell>
        <mxCell id="KuZ53aXXr-eTVpZsIPGP-27" value="Spiel beginnen" style="html=1;shadow=0;dashed=0;shape=mxgraph.bootstrap.rrect;align=center;rSize=5;strokeColor=none;fillColor=#3D8BCD;fontColor=#ffffff;fontSize=14;whiteSpace=wrap;rounded=0;movable=1;resizable=1;rotatable=1;deletable=1;editable=1;locked=0;connectable=1;fontFamily=Verdana;" parent="1" vertex="1">
          <mxGeometry x="777.5" y="2187" width="150" height="30" as="geometry" />
        </mxCell>
        <mxCell id="KuZ53aXXr-eTVpZsIPGP-28" value="" style="whiteSpace=wrap;html=1;rounded=0;shadow=0;labelBackgroundColor=none;strokeWidth=1;fillColor=none;fontFamily=Verdana;fontSize=12;align=center;comic=1;" parent="1" vertex="1">
          <mxGeometry x="20" y="2800" width="200" height="570" as="geometry" />
        </mxCell>
        <mxCell id="KuZ53aXXr-eTVpZsIPGP-29" value="Frage 1" style="text;html=1;points=[];align=left;verticalAlign=top;spacingTop=-4;fontSize=14;fontFamily=Verdana;fontStyle=0" parent="1" vertex="1">
          <mxGeometry x="37.5" y="2897" width="170" height="20" as="geometry" />
        </mxCell>
        <mxCell id="KuZ53aXXr-eTVpZsIPGP-30" value="&lt;span&gt;Frage 2&lt;/span&gt;" style="text;html=1;points=[];align=left;verticalAlign=top;spacingTop=-4;fontSize=14;fontFamily=Verdana;fontStyle=0" parent="1" vertex="1">
          <mxGeometry x="37.5" y="2933" width="170" height="20" as="geometry" />
        </mxCell>
        <mxCell id="KuZ53aXXr-eTVpZsIPGP-31" value="Frage 3" style="text;html=1;points=[];align=left;verticalAlign=top;spacingTop=-4;fontSize=14;fontFamily=Verdana;fontStyle=4" parent="1" vertex="1">
          <mxGeometry x="37.5" y="2968" width="170" height="20" as="geometry" />
        </mxCell>
        <mxCell id="KuZ53aXXr-eTVpZsIPGP-32" value="Frage 4" style="text;html=1;points=[];align=left;verticalAlign=top;spacingTop=-4;fontSize=14;fontFamily=Verdana" parent="1" vertex="1">
          <mxGeometry x="37.5" y="3004" width="170" height="20" as="geometry" />
        </mxCell>
        <mxCell id="KuZ53aXXr-eTVpZsIPGP-33" value="Frage 5" style="text;html=1;points=[];align=left;verticalAlign=top;spacingTop=-4;fontSize=14;fontFamily=Verdana" parent="1" vertex="1">
          <mxGeometry x="37.5" y="3040" width="170" height="20" as="geometry" />
        </mxCell>
        <mxCell id="KuZ53aXXr-eTVpZsIPGP-35" value="&lt;font style=&quot;font-size: 24px;&quot; face=&quot;Verdana&quot;&gt;Pool 1&lt;br&gt;&amp;lt;Datum&amp;gt;&lt;/font&gt;" style="text;html=1;align=center;verticalAlign=middle;whiteSpace=wrap;rounded=0;" parent="1" vertex="1">
          <mxGeometry x="30" y="2820" width="180" height="30" as="geometry" />
        </mxCell>
        <mxCell id="KuZ53aXXr-eTVpZsIPGP-37" value="" style="verticalLabelPosition=bottom;shadow=0;dashed=0;align=center;html=1;verticalAlign=top;strokeWidth=1;shape=mxgraph.mockup.forms.horSlider;strokeColor=#999999;sliderStyle=basic;sliderPos=42.1;handleStyle=circle;fillColor2=#ddeeff;direction=north;" parent="1" vertex="1">
          <mxGeometry x="190" y="2811" width="30" height="548" as="geometry" />
        </mxCell>
        <mxCell id="KuZ53aXXr-eTVpZsIPGP-40" value="" style="whiteSpace=wrap;html=1;rounded=0;shadow=0;labelBackgroundColor=none;strokeWidth=1;fillColor=none;fontFamily=Verdana;fontSize=12;align=center;comic=1;" parent="1" vertex="1">
          <mxGeometry x="260" y="2810" width="810" height="130" as="geometry" />
        </mxCell>
        <mxCell id="KuZ53aXXr-eTVpZsIPGP-41" value="&lt;font style=&quot;font-size: 24px;&quot; face=&quot;Verdana&quot;&gt;&amp;lt; Frage 3 &amp;gt;&lt;/font&gt;" style="text;html=1;align=center;verticalAlign=middle;whiteSpace=wrap;rounded=0;" parent="1" vertex="1">
          <mxGeometry x="527.5" y="2860" width="270" height="30" as="geometry" />
        </mxCell>
        <mxCell id="KuZ53aXXr-eTVpZsIPGP-44" value="" style="whiteSpace=wrap;html=1;rounded=0;shadow=0;labelBackgroundColor=none;strokeWidth=1;fillColor=none;fontFamily=Verdana;fontSize=12;align=center;comic=1;" parent="1" vertex="1">
          <mxGeometry x="260" y="2957" width="810" height="63" as="geometry" />
        </mxCell>
        <mxCell id="KuZ53aXXr-eTVpZsIPGP-50" value="&lt;font style=&quot;font-size: 24px;&quot; face=&quot;Verdana&quot;&gt;&amp;lt; Antwort 1 &amp;gt;&lt;/font&gt;" style="text;html=1;align=center;verticalAlign=middle;whiteSpace=wrap;rounded=0;" parent="1" vertex="1">
          <mxGeometry x="530" y="2975" width="270" height="30" as="geometry" />
        </mxCell>
        <mxCell id="KuZ53aXXr-eTVpZsIPGP-53" value="Weiter" style="html=1;shadow=0;dashed=0;shape=mxgraph.bootstrap.rrect;align=center;rSize=5;strokeColor=none;fillColor=#3D8BCD;fontColor=#ffffff;fontSize=14;whiteSpace=wrap;rounded=0;movable=1;resizable=1;rotatable=1;deletable=1;editable=1;locked=0;connectable=1;fontFamily=Verdana;" parent="1" vertex="1">
          <mxGeometry x="760" y="3280" width="150" height="30" as="geometry" />
        </mxCell>
        <mxCell id="KuZ53aXXr-eTVpZsIPGP-54" value="Zurück" style="html=1;shadow=0;dashed=0;shape=mxgraph.bootstrap.rrect;align=center;rSize=5;strokeColor=none;fillColor=#3D8BCD;fontColor=#ffffff;fontSize=14;whiteSpace=wrap;rounded=0;movable=1;resizable=1;rotatable=1;deletable=1;editable=1;locked=0;connectable=1;fontFamily=Verdana;" parent="1" vertex="1">
          <mxGeometry x="420" y="3280" width="150" height="30" as="geometry" />
        </mxCell>
        <mxCell id="KuZ53aXXr-eTVpZsIPGP-55" value="Auswertung" style="html=1;shadow=0;dashed=0;shape=mxgraph.bootstrap.rrect;align=center;rSize=5;strokeColor=none;fillColor=#3D8BCD;fontColor=#ffffff;fontSize=14;whiteSpace=wrap;rounded=0;movable=1;resizable=1;rotatable=1;deletable=1;editable=1;locked=0;connectable=1;fontFamily=Verdana;" parent="1" vertex="1">
          <mxGeometry x="590" y="3280" width="150" height="30" as="geometry" />
        </mxCell>
        <mxCell id="KuZ53aXXr-eTVpZsIPGP-57" value="" style="whiteSpace=wrap;html=1;rounded=0;shadow=0;labelBackgroundColor=none;strokeWidth=1;fillColor=none;fontFamily=Verdana;fontSize=12;align=center;comic=1;" parent="1" vertex="1">
          <mxGeometry x="250" y="3650" width="830" height="570" as="geometry" />
        </mxCell>
        <mxCell id="KuZ53aXXr-eTVpZsIPGP-58" value="&lt;pre&gt;&lt;span style=&quot;color: rgb(240, 240, 240); font-family: Helvetica; font-style: normal; font-variant-ligatures: normal; font-variant-caps: normal; letter-spacing: normal; orphans: 2; text-align: left; text-indent: 0px; text-transform: none; widows: 2; word-spacing: 0px; -webkit-text-stroke-width: 0px; white-space: normal; background-color: rgb(27, 29, 30); text-decoration-thickness: initial; text-decoration-style: initial; text-decoration-color: initial; float: none; display: inline !important;&quot;&gt;&lt;font style=&quot;font-size: 15px;&quot;&gt;View: Singleplayer- Spiel 2&lt;/font&gt;&lt;/span&gt;&lt;/pre&gt;" style="text;whiteSpace=wrap;html=1;strokeColor=default;verticalAlign=middle;" parent="1" vertex="1">
          <mxGeometry x="20" y="3410" width="180" height="40" as="geometry" />
        </mxCell>
        <mxCell id="KuZ53aXXr-eTVpZsIPGP-59" value="LOGO" style="whiteSpace=wrap;html=1;rounded=0;shadow=0;labelBackgroundColor=none;strokeWidth=1;fontFamily=Verdana;fontSize=28;align=center;comic=1;" parent="1" vertex="1">
          <mxGeometry x="38" y="3525" width="190" height="50" as="geometry" />
        </mxCell>
        <mxCell id="KuZ53aXXr-eTVpZsIPGP-60" value="&lt;div&gt;Rolle: default&lt;/div&gt;" style="text;html=1;align=left;verticalAlign=middle;whiteSpace=wrap;rounded=0;spacing=2;strokeColor=default;" parent="1" vertex="1">
          <mxGeometry x="20" y="3450" width="180" height="40" as="geometry" />
        </mxCell>
        <mxCell id="KuZ53aXXr-eTVpZsIPGP-61" value="Menü für die Durchführung eines Spiels. Hier Frage auswerten." style="text;html=1;align=center;verticalAlign=middle;whiteSpace=wrap;rounded=0;strokeColor=default;" parent="1" vertex="1">
          <mxGeometry x="210" y="3410" width="430" height="80" as="geometry" />
        </mxCell>
        <mxCell id="KuZ53aXXr-eTVpZsIPGP-62" value="Navigation:&lt;div&gt;&lt;ul style=&quot;font-size: 10px;&quot;&gt;&lt;li&gt;UF9 - Einzelspieler - Spielen&amp;nbsp;&lt;/li&gt;&lt;/ul&gt;&lt;/div&gt;" style="text;html=1;align=left;verticalAlign=top;whiteSpace=wrap;rounded=0;textShadow=0;strokeColor=default;" parent="1" vertex="1">
          <mxGeometry x="660" y="3410" width="420" height="80" as="geometry" />
        </mxCell>
        <mxCell id="KuZ53aXXr-eTVpZsIPGP-63" value="[Einzelspieler]" style="text;html=1;points=[];align=left;verticalAlign=top;spacingTop=-4;fontSize=14;fontFamily=Verdana;fontStyle=4" parent="1" vertex="1">
          <mxGeometry x="690" y="3525" width="60" height="20" as="geometry" />
        </mxCell>
        <mxCell id="KuZ53aXXr-eTVpZsIPGP-64" value="[Mehrspieler]" style="text;html=1;points=[];align=left;verticalAlign=top;spacingTop=-4;fontSize=14;fontFamily=Verdana" parent="1" vertex="1">
          <mxGeometry x="800" y="3525" width="60" height="20" as="geometry" />
        </mxCell>
        <mxCell id="KuZ53aXXr-eTVpZsIPGP-65" value="[Profil]" style="text;html=1;points=[];align=left;verticalAlign=top;spacingTop=-4;fontSize=14;fontFamily=Verdana" parent="1" vertex="1">
          <mxGeometry x="910" y="3525" width="60" height="20" as="geometry" />
        </mxCell>
        <mxCell id="KuZ53aXXr-eTVpZsIPGP-66" value="[Logout]" style="text;html=1;points=[];align=left;verticalAlign=top;spacingTop=-4;fontSize=14;fontFamily=Verdana" parent="1" vertex="1">
          <mxGeometry x="970" y="3525" width="60" height="20" as="geometry" />
        </mxCell>
        <mxCell id="KuZ53aXXr-eTVpZsIPGP-67" value="" style="line;strokeWidth=1;html=1;rounded=0;shadow=0;labelBackgroundColor=none;fillColor=none;fontFamily=Verdana;fontSize=14;fontColor=#000000;align=center;comic=1;" parent="1" vertex="1">
          <mxGeometry x="20" y="3590" width="1060" height="10" as="geometry" />
        </mxCell>
        <mxCell id="KuZ53aXXr-eTVpZsIPGP-68" value="&lt;font style=&quot;font-size: 24px;&quot; face=&quot;Verdana&quot;&gt;Einzelspieler&lt;/font&gt;" style="text;html=1;align=center;verticalAlign=middle;whiteSpace=wrap;rounded=0;" parent="1" vertex="1">
          <mxGeometry x="30" y="3605" width="180" height="30" as="geometry" />
        </mxCell>
        <mxCell id="KuZ53aXXr-eTVpZsIPGP-69" value="[Bibliothek]" style="text;html=1;points=[];align=left;verticalAlign=top;spacingTop=-4;fontSize=14;fontFamily=Verdana" parent="1" vertex="1">
          <mxGeometry x="590" y="3525" width="60" height="20" as="geometry" />
        </mxCell>
        <mxCell id="KuZ53aXXr-eTVpZsIPGP-70" value="" style="whiteSpace=wrap;html=1;rounded=0;shadow=0;labelBackgroundColor=none;strokeWidth=1;fillColor=none;fontFamily=Verdana;fontSize=12;align=center;comic=1;" parent="1" vertex="1">
          <mxGeometry x="20" y="3650" width="200" height="570" as="geometry" />
        </mxCell>
        <mxCell id="KuZ53aXXr-eTVpZsIPGP-71" value="Frage 1" style="text;html=1;points=[];align=left;verticalAlign=top;spacingTop=-4;fontSize=14;fontFamily=Verdana;fontStyle=0" parent="1" vertex="1">
          <mxGeometry x="37.5" y="3747" width="170" height="20" as="geometry" />
        </mxCell>
        <mxCell id="KuZ53aXXr-eTVpZsIPGP-72" value="&lt;span&gt;Frage 2&lt;/span&gt;" style="text;html=1;points=[];align=left;verticalAlign=top;spacingTop=-4;fontSize=14;fontFamily=Verdana;fontStyle=0" parent="1" vertex="1">
          <mxGeometry x="37.5" y="3783" width="170" height="20" as="geometry" />
        </mxCell>
        <mxCell id="KuZ53aXXr-eTVpZsIPGP-73" value="Frage 3" style="text;html=1;points=[];align=left;verticalAlign=top;spacingTop=-4;fontSize=14;fontFamily=Verdana;fontStyle=4" parent="1" vertex="1">
          <mxGeometry x="37.5" y="3818" width="170" height="20" as="geometry" />
        </mxCell>
        <mxCell id="KuZ53aXXr-eTVpZsIPGP-74" value="Frage 4" style="text;html=1;points=[];align=left;verticalAlign=top;spacingTop=-4;fontSize=14;fontFamily=Verdana" parent="1" vertex="1">
          <mxGeometry x="37.5" y="3854" width="170" height="20" as="geometry" />
        </mxCell>
        <mxCell id="KuZ53aXXr-eTVpZsIPGP-75" value="Frage 5" style="text;html=1;points=[];align=left;verticalAlign=top;spacingTop=-4;fontSize=14;fontFamily=Verdana" parent="1" vertex="1">
          <mxGeometry x="37.5" y="3890" width="170" height="20" as="geometry" />
        </mxCell>
        <mxCell id="KuZ53aXXr-eTVpZsIPGP-76" value="&lt;font style=&quot;font-size: 24px;&quot; face=&quot;Verdana&quot;&gt;Pool 1&lt;br&gt;&amp;lt;Datum&amp;gt;&lt;/font&gt;" style="text;html=1;align=center;verticalAlign=middle;whiteSpace=wrap;rounded=0;" parent="1" vertex="1">
          <mxGeometry x="30" y="3670" width="180" height="30" as="geometry" />
        </mxCell>
        <mxCell id="KuZ53aXXr-eTVpZsIPGP-77" value="" style="verticalLabelPosition=bottom;shadow=0;dashed=0;align=center;html=1;verticalAlign=top;strokeWidth=1;shape=mxgraph.mockup.forms.horSlider;strokeColor=#999999;sliderStyle=basic;sliderPos=42.1;handleStyle=circle;fillColor2=#ddeeff;direction=north;" parent="1" vertex="1">
          <mxGeometry x="190" y="3661" width="30" height="548" as="geometry" />
        </mxCell>
        <mxCell id="KuZ53aXXr-eTVpZsIPGP-88" value="Weiter" style="html=1;shadow=0;dashed=0;shape=mxgraph.bootstrap.rrect;align=center;rSize=5;strokeColor=none;fillColor=#3D8BCD;fontColor=#ffffff;fontSize=14;whiteSpace=wrap;rounded=0;movable=1;resizable=1;rotatable=1;deletable=1;editable=1;locked=0;connectable=1;fontFamily=Verdana;" parent="1" vertex="1">
          <mxGeometry x="760" y="4130" width="150" height="30" as="geometry" />
        </mxCell>
        <mxCell id="KuZ53aXXr-eTVpZsIPGP-89" value="Zurück" style="html=1;shadow=0;dashed=0;shape=mxgraph.bootstrap.rrect;align=center;rSize=5;strokeColor=none;fillColor=#3D8BCD;fontColor=#ffffff;fontSize=14;whiteSpace=wrap;rounded=0;movable=1;resizable=1;rotatable=1;deletable=1;editable=1;locked=0;connectable=1;fontFamily=Verdana;" parent="1" vertex="1">
          <mxGeometry x="420" y="4130" width="150" height="30" as="geometry" />
        </mxCell>
        <mxCell id="KuZ53aXXr-eTVpZsIPGP-145" value="&lt;pre&gt;&lt;span style=&quot;color: rgb(240, 240, 240); font-family: Helvetica; font-style: normal; font-variant-ligatures: normal; font-variant-caps: normal; letter-spacing: normal; orphans: 2; text-align: left; text-indent: 0px; text-transform: none; widows: 2; word-spacing: 0px; -webkit-text-stroke-width: 0px; white-space: normal; background-color: rgb(27, 29, 30); text-decoration-thickness: initial; text-decoration-style: initial; text-decoration-color: initial; float: none; display: inline !important;&quot;&gt;&lt;font style=&quot;font-size: 15px;&quot;&gt;View: Singleplayer - Ergebnis&lt;/font&gt;&lt;/span&gt;&lt;/pre&gt;" style="text;whiteSpace=wrap;html=1;strokeColor=default;verticalAlign=middle;" parent="1" vertex="1">
          <mxGeometry x="20" y="5110" width="180" height="40" as="geometry" />
        </mxCell>
        <mxCell id="KuZ53aXXr-eTVpZsIPGP-146" value="LOGO" style="whiteSpace=wrap;html=1;rounded=0;shadow=0;labelBackgroundColor=none;strokeWidth=1;fontFamily=Verdana;fontSize=28;align=center;comic=1;" parent="1" vertex="1">
          <mxGeometry x="38" y="5225" width="190" height="50" as="geometry" />
        </mxCell>
        <mxCell id="KuZ53aXXr-eTVpZsIPGP-147" value="&lt;div&gt;Rolle: default&lt;/div&gt;" style="text;html=1;align=left;verticalAlign=middle;whiteSpace=wrap;rounded=0;spacing=2;strokeColor=default;" parent="1" vertex="1">
          <mxGeometry x="20" y="5150" width="180" height="40" as="geometry" />
        </mxCell>
        <mxCell id="KuZ53aXXr-eTVpZsIPGP-148" value="Anzeige der Ergebnisse am Ende eines Spiels" style="text;html=1;align=center;verticalAlign=middle;whiteSpace=wrap;rounded=0;strokeColor=default;" parent="1" vertex="1">
          <mxGeometry x="210" y="5110" width="430" height="80" as="geometry" />
        </mxCell>
        <mxCell id="KuZ53aXXr-eTVpZsIPGP-149" value="Navigation:&lt;div&gt;&lt;ul style=&quot;font-size: 10px;&quot;&gt;&lt;li&gt;UF9 - Einzelspieler - Spielen&amp;nbsp;&lt;/li&gt;&lt;/ul&gt;&lt;/div&gt;" style="text;html=1;align=left;verticalAlign=top;whiteSpace=wrap;rounded=0;textShadow=0;strokeColor=default;" parent="1" vertex="1">
          <mxGeometry x="660" y="5110" width="420" height="80" as="geometry" />
        </mxCell>
        <mxCell id="KuZ53aXXr-eTVpZsIPGP-150" value="[Einzelspieler]" style="text;html=1;points=[];align=left;verticalAlign=top;spacingTop=-4;fontSize=14;fontFamily=Verdana;fontStyle=4" parent="1" vertex="1">
          <mxGeometry x="690" y="5225" width="60" height="20" as="geometry" />
        </mxCell>
        <mxCell id="KuZ53aXXr-eTVpZsIPGP-151" value="[Mehrspieler]" style="text;html=1;points=[];align=left;verticalAlign=top;spacingTop=-4;fontSize=14;fontFamily=Verdana" parent="1" vertex="1">
          <mxGeometry x="800" y="5225" width="60" height="20" as="geometry" />
        </mxCell>
        <mxCell id="KuZ53aXXr-eTVpZsIPGP-152" value="[Profil]" style="text;html=1;points=[];align=left;verticalAlign=top;spacingTop=-4;fontSize=14;fontFamily=Verdana" parent="1" vertex="1">
          <mxGeometry x="910" y="5225" width="60" height="20" as="geometry" />
        </mxCell>
        <mxCell id="KuZ53aXXr-eTVpZsIPGP-153" value="[Logout]" style="text;html=1;points=[];align=left;verticalAlign=top;spacingTop=-4;fontSize=14;fontFamily=Verdana" parent="1" vertex="1">
          <mxGeometry x="970" y="5225" width="60" height="20" as="geometry" />
        </mxCell>
        <mxCell id="KuZ53aXXr-eTVpZsIPGP-154" value="" style="line;strokeWidth=1;html=1;rounded=0;shadow=0;labelBackgroundColor=none;fillColor=none;fontFamily=Verdana;fontSize=14;fontColor=#000000;align=center;comic=1;" parent="1" vertex="1">
          <mxGeometry x="20" y="5290" width="1060" height="10" as="geometry" />
        </mxCell>
        <mxCell id="KuZ53aXXr-eTVpZsIPGP-155" value="&lt;font style=&quot;font-size: 24px;&quot; face=&quot;Verdana&quot;&gt;Einzelspieler&lt;/font&gt;" style="text;html=1;align=center;verticalAlign=middle;whiteSpace=wrap;rounded=0;" parent="1" vertex="1">
          <mxGeometry x="30" y="5305" width="180" height="30" as="geometry" />
        </mxCell>
        <mxCell id="KuZ53aXXr-eTVpZsIPGP-156" value="[Bibliothek]" style="text;html=1;points=[];align=left;verticalAlign=top;spacingTop=-4;fontSize=14;fontFamily=Verdana" parent="1" vertex="1">
          <mxGeometry x="590" y="5225" width="60" height="20" as="geometry" />
        </mxCell>
        <mxCell id="KuZ53aXXr-eTVpZsIPGP-157" value="" style="whiteSpace=wrap;html=1;rounded=0;shadow=0;labelBackgroundColor=none;strokeWidth=1;fillColor=none;fontFamily=Verdana;fontSize=12;align=center;comic=1;" parent="1" vertex="1">
          <mxGeometry x="20" y="5350" width="200" height="570" as="geometry" />
        </mxCell>
        <mxCell id="KuZ53aXXr-eTVpZsIPGP-158" value="Frage 1" style="text;html=1;points=[];align=left;verticalAlign=top;spacingTop=-4;fontSize=14;fontFamily=Verdana;fontStyle=0;comic=0;fillColor=none;fillStyle=hatch;gradientColor=none;glass=0;rounded=0;" parent="1" vertex="1">
          <mxGeometry x="37.5" y="5447" width="170" height="20" as="geometry" />
        </mxCell>
        <mxCell id="KuZ53aXXr-eTVpZsIPGP-159" value="&lt;span&gt;Frage 2&lt;/span&gt;" style="text;html=1;points=[];align=left;verticalAlign=top;spacingTop=-4;fontSize=14;fontFamily=Verdana;fontStyle=0" parent="1" vertex="1">
          <mxGeometry x="37.5" y="5483" width="170" height="20" as="geometry" />
        </mxCell>
        <mxCell id="KuZ53aXXr-eTVpZsIPGP-160" value="&lt;span&gt;Frage 3&lt;/span&gt;" style="text;html=1;points=[];align=left;verticalAlign=top;spacingTop=-4;fontSize=14;fontFamily=Verdana;fontStyle=0" parent="1" vertex="1">
          <mxGeometry x="37.5" y="5518" width="170" height="20" as="geometry" />
        </mxCell>
        <mxCell id="KuZ53aXXr-eTVpZsIPGP-161" value="Frage 4" style="text;html=1;points=[];align=left;verticalAlign=top;spacingTop=-4;fontSize=14;fontFamily=Verdana" parent="1" vertex="1">
          <mxGeometry x="37.5" y="5554" width="170" height="20" as="geometry" />
        </mxCell>
        <mxCell id="KuZ53aXXr-eTVpZsIPGP-162" value="Frage 5" style="text;html=1;points=[];align=left;verticalAlign=top;spacingTop=-4;fontSize=14;fontFamily=Verdana" parent="1" vertex="1">
          <mxGeometry x="37.5" y="5590" width="170" height="20" as="geometry" />
        </mxCell>
        <mxCell id="KuZ53aXXr-eTVpZsIPGP-163" value="&lt;font style=&quot;font-size: 24px;&quot; face=&quot;Verdana&quot;&gt;Pool 1&lt;br&gt;&amp;lt;Datum&amp;gt;&lt;/font&gt;" style="text;html=1;align=center;verticalAlign=middle;whiteSpace=wrap;rounded=0;" parent="1" vertex="1">
          <mxGeometry x="30" y="5370" width="180" height="30" as="geometry" />
        </mxCell>
        <mxCell id="KuZ53aXXr-eTVpZsIPGP-164" value="" style="verticalLabelPosition=bottom;shadow=0;dashed=0;align=center;html=1;verticalAlign=top;strokeWidth=1;shape=mxgraph.mockup.forms.horSlider;strokeColor=#999999;sliderStyle=basic;sliderPos=42.1;handleStyle=circle;fillColor2=#ddeeff;direction=north;" parent="1" vertex="1">
          <mxGeometry x="190" y="5361" width="30" height="548" as="geometry" />
        </mxCell>
        <mxCell id="DRIDYZ6piAZy7SDznY-A-1" value="" style="whiteSpace=wrap;html=1;rounded=0;shadow=0;labelBackgroundColor=none;strokeWidth=1;fillColor=none;fontFamily=Verdana;fontSize=12;align=center;comic=1;" parent="1" vertex="1">
          <mxGeometry x="240" y="5350" width="830" height="570" as="geometry" />
        </mxCell>
        <mxCell id="DRIDYZ6piAZy7SDznY-A-3" value="&lt;font face=&quot;Verdana&quot; style=&quot;font-size: 22px;&quot;&gt;Gesamtergebnis&lt;/font&gt;" style="text;html=1;align=center;verticalAlign=middle;whiteSpace=wrap;rounded=0;fontSize=12;fontFamily=Helvetica;fontColor=default;" parent="1" vertex="1">
          <mxGeometry x="520" y="5390" width="270" height="30" as="geometry" />
        </mxCell>
        <mxCell id="DRIDYZ6piAZy7SDznY-A-4" value="- % Richtige antworten&lt;div&gt;- % Durchschnitt aller Spiele in diesem Pool&lt;/div&gt;" style="whiteSpace=wrap;html=1;rounded=0;shadow=0;labelBackgroundColor=none;strokeWidth=1;fillColor=none;fontFamily=Verdana;fontSize=12;align=center;comic=1;" parent="1" vertex="1">
          <mxGeometry x="455" y="5439.5" width="400" height="70.5" as="geometry" />
        </mxCell>
        <mxCell id="DRIDYZ6piAZy7SDznY-A-6" value="" style="whiteSpace=wrap;html=1;rounded=0;shadow=0;labelBackgroundColor=none;strokeWidth=1;fillColor=none;fontFamily=Verdana;fontSize=12;align=center;comic=1;" parent="1" vertex="1">
          <mxGeometry x="455" y="5538" width="395" height="322" as="geometry" />
        </mxCell>
        <mxCell id="DRIDYZ6piAZy7SDznY-A-7" value="Frage 1" style="text;html=1;points=[];align=left;verticalAlign=top;spacingTop=-4;fontSize=14;fontFamily=Verdana;fontStyle=0;comic=0;fillColor=none;fillStyle=hatch;gradientColor=none;glass=0;rounded=0;" parent="1" vertex="1">
          <mxGeometry x="470" y="5570" width="170" height="20" as="geometry" />
        </mxCell>
        <mxCell id="DRIDYZ6piAZy7SDznY-A-8" value="&lt;span&gt;Frage 2&lt;/span&gt;" style="text;html=1;points=[];align=left;verticalAlign=top;spacingTop=-4;fontSize=14;fontFamily=Verdana;fontStyle=0" parent="1" vertex="1">
          <mxGeometry x="470" y="5606" width="170" height="20" as="geometry" />
        </mxCell>
        <mxCell id="DRIDYZ6piAZy7SDznY-A-9" value="&lt;span&gt;Frage 3&lt;/span&gt;" style="text;html=1;points=[];align=left;verticalAlign=top;spacingTop=-4;fontSize=14;fontFamily=Verdana;fontStyle=0" parent="1" vertex="1">
          <mxGeometry x="470" y="5641" width="170" height="20" as="geometry" />
        </mxCell>
        <mxCell id="DRIDYZ6piAZy7SDznY-A-10" value="Frage 4" style="text;html=1;points=[];align=left;verticalAlign=top;spacingTop=-4;fontSize=14;fontFamily=Verdana" parent="1" vertex="1">
          <mxGeometry x="470" y="5677" width="170" height="20" as="geometry" />
        </mxCell>
        <mxCell id="DRIDYZ6piAZy7SDznY-A-11" value="Frage 5" style="text;html=1;points=[];align=left;verticalAlign=top;spacingTop=-4;fontSize=14;fontFamily=Verdana" parent="1" vertex="1">
          <mxGeometry x="470" y="5713" width="170" height="20" as="geometry" />
        </mxCell>
        <mxCell id="DRIDYZ6piAZy7SDznY-A-14" value="" style="verticalLabelPosition=bottom;verticalAlign=top;html=1;shape=mxgraph.basic.tick;fillColor=#60a917;fontColor=#ffffff;strokeColor=#2D7600;" parent="1" vertex="1">
          <mxGeometry x="540" y="5718" width="15" height="10" as="geometry" />
        </mxCell>
        <mxCell id="DRIDYZ6piAZy7SDznY-A-16" value="Spiel beenden" style="html=1;shadow=0;dashed=0;shape=mxgraph.bootstrap.rrect;align=center;rSize=5;strokeColor=none;fillColor=#3D8BCD;fontColor=#ffffff;fontSize=14;whiteSpace=wrap;rounded=0;movable=1;resizable=1;rotatable=1;deletable=1;editable=1;locked=0;connectable=1;fontFamily=Verdana;" parent="1" vertex="1">
          <mxGeometry x="560" y="5870" width="150" height="30" as="geometry" />
        </mxCell>
        <mxCell id="DRIDYZ6piAZy7SDznY-A-17" value="" style="verticalLabelPosition=bottom;verticalAlign=top;html=1;shape=mxgraph.basic.tick;fillColor=#60a917;fontColor=#ffffff;strokeColor=#2D7600;" parent="1" vertex="1">
          <mxGeometry x="535" y="5575" width="15" height="10" as="geometry" />
        </mxCell>
        <mxCell id="DRIDYZ6piAZy7SDznY-A-18" value="" style="verticalLabelPosition=bottom;verticalAlign=top;html=1;shape=mxgraph.basic.x;fillColor=#a20025;fontColor=#ffffff;strokeColor=#6F0000;" parent="1" vertex="1">
          <mxGeometry x="537.5" y="5612" width="10" height="8" as="geometry" />
        </mxCell>
        <mxCell id="DRIDYZ6piAZy7SDznY-A-19" value="" style="verticalLabelPosition=bottom;verticalAlign=top;html=1;shape=mxgraph.basic.tick;fillColor=#60a917;fontColor=#ffffff;strokeColor=#2D7600;" parent="1" vertex="1">
          <mxGeometry x="537.5" y="5641" width="15" height="10" as="geometry" />
        </mxCell>
        <mxCell id="DRIDYZ6piAZy7SDznY-A-20" value="" style="verticalLabelPosition=bottom;verticalAlign=top;html=1;shape=mxgraph.basic.x;fillColor=#a20025;fontColor=#ffffff;strokeColor=#6F0000;" parent="1" vertex="1">
          <mxGeometry x="540" y="5678" width="10" height="8" as="geometry" />
        </mxCell>
        <mxCell id="DRIDYZ6piAZy7SDznY-A-22" value="2x richting / 1x falsch" style="text;html=1;points=[];align=left;verticalAlign=top;spacingTop=-4;fontSize=14;fontFamily=Verdana;fontStyle=0;comic=0;fillColor=none;fillStyle=hatch;gradientColor=none;glass=0;rounded=0;" parent="1" vertex="1">
          <mxGeometry x="580" y="5574" width="170" height="20" as="geometry" />
        </mxCell>
        <mxCell id="DRIDYZ6piAZy7SDznY-A-23" value="2x richting / 1x falsch" style="text;html=1;points=[];align=left;verticalAlign=top;spacingTop=-4;fontSize=14;fontFamily=Verdana;fontStyle=0" parent="1" vertex="1">
          <mxGeometry x="580" y="5610" width="170" height="20" as="geometry" />
        </mxCell>
        <mxCell id="DRIDYZ6piAZy7SDznY-A-24" value="2x richting / 1x falsch" style="text;html=1;points=[];align=left;verticalAlign=top;spacingTop=-4;fontSize=14;fontFamily=Verdana;fontStyle=0" parent="1" vertex="1">
          <mxGeometry x="580" y="5645" width="170" height="20" as="geometry" />
        </mxCell>
        <mxCell id="DRIDYZ6piAZy7SDznY-A-25" value="2x richting / 1x falsch" style="text;html=1;points=[];align=left;verticalAlign=top;spacingTop=-4;fontSize=14;fontFamily=Verdana" parent="1" vertex="1">
          <mxGeometry x="580" y="5681" width="170" height="20" as="geometry" />
        </mxCell>
        <mxCell id="DRIDYZ6piAZy7SDznY-A-26" value="2x richting / 1x falsch" style="text;html=1;points=[];align=left;verticalAlign=top;spacingTop=-4;fontSize=14;fontFamily=Verdana" parent="1" vertex="1">
          <mxGeometry x="580" y="5717" width="170" height="20" as="geometry" />
        </mxCell>
        <mxCell id="k2BrlGGkdURELfQeBrAu-29" style="rounded=0;orthogonalLoop=1;jettySize=auto;html=1;entryX=0;entryY=0.5;entryDx=0;entryDy=0;endArrow=none;endFill=0;" edge="1" parent="1" source="DRIDYZ6piAZy7SDznY-A-31" target="k2BrlGGkdURELfQeBrAu-27">
          <mxGeometry relative="1" as="geometry" />
        </mxCell>
        <mxCell id="DRIDYZ6piAZy7SDznY-A-31" value="Spiel beenden" style="html=1;shadow=0;dashed=0;shape=mxgraph.bootstrap.rrect;align=center;rSize=5;strokeColor=none;fillColor=#3D8BCD;fontColor=#ffffff;fontSize=14;whiteSpace=wrap;rounded=0;movable=1;resizable=1;rotatable=1;deletable=1;editable=1;locked=0;connectable=1;fontFamily=Verdana;" parent="1" vertex="1">
          <mxGeometry x="590" y="4130" width="150" height="30" as="geometry" />
        </mxCell>
        <mxCell id="DBaxcub1hoiklUv32fDf-1" value="&lt;pre&gt;&lt;span style=&quot;color: rgb(240, 240, 240); font-family: Helvetica; font-style: normal; font-variant-ligatures: normal; font-variant-caps: normal; letter-spacing: normal; orphans: 2; text-align: left; text-indent: 0px; text-transform: none; widows: 2; word-spacing: 0px; -webkit-text-stroke-width: 0px; white-space: normal; background-color: rgb(27, 29, 30); text-decoration-thickness: initial; text-decoration-style: initial; text-decoration-color: initial; float: none; display: inline !important;&quot;&gt;&lt;font style=&quot;font-size: 15px;&quot;&gt;View: Singleplayer- Spiel fortsetzen&lt;/font&gt;&lt;/span&gt;&lt;/pre&gt;" style="text;whiteSpace=wrap;html=1;strokeColor=default;verticalAlign=middle;" parent="1" vertex="1">
          <mxGeometry x="20" y="5960" width="180" height="40" as="geometry" />
        </mxCell>
        <mxCell id="DBaxcub1hoiklUv32fDf-2" value="LOGO" style="whiteSpace=wrap;html=1;rounded=0;shadow=0;labelBackgroundColor=none;strokeWidth=1;fontFamily=Verdana;fontSize=28;align=center;comic=1;" parent="1" vertex="1">
          <mxGeometry x="38" y="6075" width="190" height="50" as="geometry" />
        </mxCell>
        <mxCell id="DBaxcub1hoiklUv32fDf-3" value="&lt;div&gt;Rolle: default&lt;/div&gt;" style="text;html=1;align=left;verticalAlign=middle;whiteSpace=wrap;rounded=0;spacing=2;strokeColor=default;" parent="1" vertex="1">
          <mxGeometry x="20" y="6000" width="180" height="40" as="geometry" />
        </mxCell>
        <mxCell id="DBaxcub1hoiklUv32fDf-4" value="Menü zum Fortsetzen eines begonnenen Spiels." style="text;html=1;align=center;verticalAlign=middle;whiteSpace=wrap;rounded=0;strokeColor=default;" parent="1" vertex="1">
          <mxGeometry x="210" y="5960" width="430" height="80" as="geometry" />
        </mxCell>
        <mxCell id="DBaxcub1hoiklUv32fDf-5" value="Navigation:&lt;div&gt;&lt;ul style=&quot;font-size: 10px;&quot;&gt;&lt;li&gt;UF10 - EInzelspieler - Spiel fortsetzen&lt;br&gt;&lt;/li&gt;&lt;/ul&gt;&lt;/div&gt;" style="text;html=1;align=left;verticalAlign=top;whiteSpace=wrap;rounded=0;textShadow=0;strokeColor=default;" parent="1" vertex="1">
          <mxGeometry x="660" y="5960" width="420" height="80" as="geometry" />
        </mxCell>
        <mxCell id="DBaxcub1hoiklUv32fDf-6" value="[Einzelspieler]" style="text;html=1;points=[];align=left;verticalAlign=top;spacingTop=-4;fontSize=14;fontFamily=Verdana;fontStyle=4" parent="1" vertex="1">
          <mxGeometry x="690" y="6075" width="60" height="20" as="geometry" />
        </mxCell>
        <mxCell id="DBaxcub1hoiklUv32fDf-7" value="[Mehrspieler]" style="text;html=1;points=[];align=left;verticalAlign=top;spacingTop=-4;fontSize=14;fontFamily=Verdana" parent="1" vertex="1">
          <mxGeometry x="800" y="6075" width="60" height="20" as="geometry" />
        </mxCell>
        <mxCell id="DBaxcub1hoiklUv32fDf-8" value="[Profil]" style="text;html=1;points=[];align=left;verticalAlign=top;spacingTop=-4;fontSize=14;fontFamily=Verdana" parent="1" vertex="1">
          <mxGeometry x="910" y="6075" width="60" height="20" as="geometry" />
        </mxCell>
        <mxCell id="DBaxcub1hoiklUv32fDf-9" value="[Logout]" style="text;html=1;points=[];align=left;verticalAlign=top;spacingTop=-4;fontSize=14;fontFamily=Verdana" parent="1" vertex="1">
          <mxGeometry x="970" y="6075" width="60" height="20" as="geometry" />
        </mxCell>
        <mxCell id="DBaxcub1hoiklUv32fDf-10" value="LOGO" style="whiteSpace=wrap;html=1;rounded=0;shadow=0;labelBackgroundColor=none;strokeWidth=1;fontFamily=Verdana;fontSize=28;align=center;comic=1;" parent="1" vertex="1">
          <mxGeometry x="38" y="6075" width="190" height="50" as="geometry" />
        </mxCell>
        <mxCell id="DBaxcub1hoiklUv32fDf-11" value="" style="line;strokeWidth=1;html=1;rounded=0;shadow=0;labelBackgroundColor=none;fillColor=none;fontFamily=Verdana;fontSize=14;fontColor=#000000;align=center;comic=1;" parent="1" vertex="1">
          <mxGeometry x="20" y="6140" width="1060" height="10" as="geometry" />
        </mxCell>
        <mxCell id="DBaxcub1hoiklUv32fDf-12" value="&lt;font style=&quot;font-size: 24px;&quot; face=&quot;Verdana&quot;&gt;Einzelspieler&lt;/font&gt;" style="text;html=1;align=center;verticalAlign=middle;whiteSpace=wrap;rounded=0;" parent="1" vertex="1">
          <mxGeometry x="30" y="6155" width="180" height="30" as="geometry" />
        </mxCell>
        <mxCell id="DBaxcub1hoiklUv32fDf-13" value="[Bibliothek]" style="text;html=1;points=[];align=left;verticalAlign=top;spacingTop=-4;fontSize=14;fontFamily=Verdana" parent="1" vertex="1">
          <mxGeometry x="590" y="6075" width="60" height="20" as="geometry" />
        </mxCell>
        <mxCell id="DBaxcub1hoiklUv32fDf-14" value="" style="whiteSpace=wrap;html=1;rounded=0;shadow=0;labelBackgroundColor=none;strokeWidth=1;fillColor=none;fontFamily=Verdana;fontSize=12;align=center;comic=1;" parent="1" vertex="1">
          <mxGeometry x="20" y="6200" width="200" height="570" as="geometry" />
        </mxCell>
        <mxCell id="DBaxcub1hoiklUv32fDf-15" value="&lt;u&gt;[Pool 1 &amp;lt;Datum&amp;gt;]&lt;/u&gt;" style="text;html=1;points=[];align=left;verticalAlign=top;spacingTop=-4;fontSize=14;fontFamily=Verdana" parent="1" vertex="1">
          <mxGeometry x="35" y="6265" width="170" height="20" as="geometry" />
        </mxCell>
        <mxCell id="DBaxcub1hoiklUv32fDf-16" value="[...]" style="text;html=1;points=[];align=left;verticalAlign=top;spacingTop=-4;fontSize=14;fontFamily=Verdana" parent="1" vertex="1">
          <mxGeometry x="35" y="6301" width="170" height="20" as="geometry" />
        </mxCell>
        <mxCell id="DBaxcub1hoiklUv32fDf-20" value="&lt;font style=&quot;font-size: 20px;&quot; face=&quot;Verdana&quot;&gt;Spiel fortzsetzen&lt;/font&gt;" style="text;html=1;align=center;verticalAlign=middle;whiteSpace=wrap;rounded=0;" parent="1" vertex="1">
          <mxGeometry x="27" y="6215" width="180" height="30" as="geometry" />
        </mxCell>
        <mxCell id="DBaxcub1hoiklUv32fDf-21" value="" style="whiteSpace=wrap;html=1;rounded=0;shadow=0;labelBackgroundColor=none;strokeWidth=1;fillColor=none;fontFamily=Verdana;fontSize=12;align=center;comic=1;" parent="1" vertex="1">
          <mxGeometry x="250" y="6200" width="340" height="570" as="geometry" />
        </mxCell>
        <mxCell id="DBaxcub1hoiklUv32fDf-22" value="Frage 1" style="text;html=1;points=[];align=left;verticalAlign=top;spacingTop=-4;fontSize=14;fontFamily=Verdana" parent="1" vertex="1">
          <mxGeometry x="267.5" y="6306" width="170" height="20" as="geometry" />
        </mxCell>
        <mxCell id="DBaxcub1hoiklUv32fDf-23" value="Frage 2" style="text;html=1;points=[];align=left;verticalAlign=top;spacingTop=-4;fontSize=14;fontFamily=Verdana" parent="1" vertex="1">
          <mxGeometry x="267.5" y="6342" width="170" height="20" as="geometry" />
        </mxCell>
        <mxCell id="DBaxcub1hoiklUv32fDf-24" value="Frage 3" style="text;html=1;points=[];align=left;verticalAlign=top;spacingTop=-4;fontSize=14;fontFamily=Verdana" parent="1" vertex="1">
          <mxGeometry x="267.5" y="6377" width="170" height="20" as="geometry" />
        </mxCell>
        <mxCell id="DBaxcub1hoiklUv32fDf-25" value="Frage 4" style="text;html=1;points=[];align=left;verticalAlign=top;spacingTop=-4;fontSize=14;fontFamily=Verdana" parent="1" vertex="1">
          <mxGeometry x="267.5" y="6413" width="170" height="20" as="geometry" />
        </mxCell>
        <mxCell id="DBaxcub1hoiklUv32fDf-26" value="Frage 5" style="text;html=1;points=[];align=left;verticalAlign=top;spacingTop=-4;fontSize=14;fontFamily=Verdana" parent="1" vertex="1">
          <mxGeometry x="267.5" y="6449" width="170" height="20" as="geometry" />
        </mxCell>
        <mxCell id="DBaxcub1hoiklUv32fDf-27" value="" style="verticalLabelPosition=bottom;shadow=0;dashed=0;align=center;html=1;verticalAlign=top;strokeWidth=1;shape=mxgraph.mockup.forms.horSlider;strokeColor=#999999;sliderStyle=basic;sliderPos=51.073;handleStyle=circle;fillColor2=#ddeeff;direction=north;" parent="1" vertex="1">
          <mxGeometry x="560" y="6211" width="30" height="548" as="geometry" />
        </mxCell>
        <mxCell id="DBaxcub1hoiklUv32fDf-28" value="" style="verticalLabelPosition=bottom;shadow=0;dashed=0;align=center;html=1;verticalAlign=top;strokeWidth=1;shape=mxgraph.mockup.forms.horSlider;strokeColor=#999999;sliderStyle=basic;sliderPos=42.1;handleStyle=circle;fillColor2=#ddeeff;direction=north;" parent="1" vertex="1">
          <mxGeometry x="190" y="6207" width="30" height="548" as="geometry" />
        </mxCell>
        <mxCell id="DBaxcub1hoiklUv32fDf-29" value="&lt;font style=&quot;font-size: 20px;&quot; face=&quot;Verdana&quot;&gt;Ergebnisse&lt;/font&gt;" style="text;html=1;align=center;verticalAlign=middle;whiteSpace=wrap;rounded=0;fontFamily=Helvetica;fontSize=12;fontColor=default;" parent="1" vertex="1">
          <mxGeometry x="330" y="6215" width="180" height="30" as="geometry" />
        </mxCell>
        <mxCell id="DBaxcub1hoiklUv32fDf-30" value="&lt;font style=&quot;font-size: 20px;&quot;&gt;&lt;span style=&quot;font-family: Verdana;&quot;&gt;Pool 1&amp;nbsp;&lt;/span&gt;&lt;span style=&quot;font-family: Verdana;&quot;&gt;&amp;lt;Datum&amp;gt;&lt;/span&gt;&lt;/font&gt;" style="text;html=1;align=center;verticalAlign=middle;whiteSpace=wrap;rounded=0;fontFamily=Helvetica;fontSize=21;fontColor=default;" parent="1" vertex="1">
          <mxGeometry x="260" y="6255" width="180" height="30" as="geometry" />
        </mxCell>
        <mxCell id="DBaxcub1hoiklUv32fDf-31" value="" style="whiteSpace=wrap;html=1;rounded=0;shadow=0;labelBackgroundColor=none;strokeWidth=1;fillColor=none;fontFamily=Verdana;fontSize=12;align=center;comic=1;" parent="1" vertex="1">
          <mxGeometry x="625" y="6200" width="455" height="570" as="geometry" />
        </mxCell>
        <mxCell id="DBaxcub1hoiklUv32fDf-32" value="&lt;span style=&quot;font-size: 21px; font-family: Verdana;&quot;&gt;Pool 1&amp;nbsp;&lt;/span&gt;&lt;span style=&quot;font-size: 21px; font-family: Verdana;&quot;&gt;&amp;lt;Datum&amp;gt;&lt;/span&gt;" style="text;html=1;align=center;verticalAlign=middle;whiteSpace=wrap;rounded=0;" parent="1" vertex="1">
          <mxGeometry x="717.5" y="6378" width="270" height="30" as="geometry" />
        </mxCell>
        <mxCell id="DBaxcub1hoiklUv32fDf-33" value="Spiel fortsetzen" style="html=1;shadow=0;dashed=0;shape=mxgraph.bootstrap.rrect;align=center;rSize=5;strokeColor=none;fillColor=#3D8BCD;fontColor=#ffffff;fontSize=14;whiteSpace=wrap;rounded=0;movable=1;resizable=1;rotatable=1;deletable=1;editable=1;locked=0;connectable=1;fontFamily=Verdana;" parent="1" vertex="1">
          <mxGeometry x="777.5" y="6437" width="150" height="30" as="geometry" />
        </mxCell>
        <mxCell id="DBaxcub1hoiklUv32fDf-58" value="&lt;font style=&quot;font-size: 24px;&quot; face=&quot;Verdana&quot;&gt;Gesamtergebnis&amp;nbsp;&lt;/font&gt;&lt;span style=&quot;font-size: 24px; text-wrap: nowrap; font-family: Verdana; text-align: left;&quot;&gt;Pool 1 &amp;lt;Datum&amp;gt;&lt;/span&gt;" style="text;html=1;align=center;verticalAlign=middle;whiteSpace=wrap;rounded=0;fontSize=12;fontFamily=Helvetica;fontColor=default;fontStyle=0" parent="1" vertex="1">
          <mxGeometry x="530" y="7095" width="270" height="30" as="geometry" />
        </mxCell>
        <mxCell id="DBaxcub1hoiklUv32fDf-60" value="" style="whiteSpace=wrap;html=1;rounded=0;shadow=0;labelBackgroundColor=none;strokeWidth=1;fillColor=none;fontFamily=Verdana;fontSize=12;align=center;comic=1;" parent="1" vertex="1">
          <mxGeometry x="465" y="7243" width="395" height="322" as="geometry" />
        </mxCell>
        <mxCell id="DBaxcub1hoiklUv32fDf-61" value="Frage 1" style="text;html=1;points=[];align=left;verticalAlign=top;spacingTop=-4;fontSize=14;fontFamily=Verdana;fontStyle=0;comic=0;fillColor=none;fillStyle=hatch;gradientColor=none;glass=0;rounded=0;" parent="1" vertex="1">
          <mxGeometry x="480" y="7280" width="170" height="20" as="geometry" />
        </mxCell>
        <mxCell id="DBaxcub1hoiklUv32fDf-67" value="" style="verticalLabelPosition=bottom;verticalAlign=top;html=1;shape=mxgraph.basic.tick;fillColor=#60a917;fontColor=#ffffff;strokeColor=#2D7600;" parent="1" vertex="1">
          <mxGeometry x="545" y="7285" width="15" height="10" as="geometry" />
        </mxCell>
        <mxCell id="DBaxcub1hoiklUv32fDf-71" value="2x richting / 1x falsch" style="text;html=1;points=[];align=left;verticalAlign=top;spacingTop=-4;fontSize=14;fontFamily=Verdana;fontStyle=0;comic=0;fillColor=none;fillStyle=hatch;gradientColor=none;glass=0;rounded=0;" parent="1" vertex="1">
          <mxGeometry x="590" y="7279" width="170" height="20" as="geometry" />
        </mxCell>
        <mxCell id="yWlI-Bi-MPtsX9qwKeUs-1" value="&lt;span&gt;Deine Antwort&lt;/span&gt;" style="text;html=1;points=[];align=left;verticalAlign=top;spacingTop=-4;fontSize=14;fontFamily=Verdana;fontStyle=0" parent="1" vertex="1">
          <mxGeometry x="510" y="7310" width="170" height="20" as="geometry" />
        </mxCell>
        <mxCell id="k2BrlGGkdURELfQeBrAu-1" value="" style="whiteSpace=wrap;html=1;rounded=0;shadow=0;labelBackgroundColor=none;strokeWidth=1;fillColor=none;fontFamily=Verdana;fontSize=12;align=center;comic=1;" vertex="1" parent="1">
          <mxGeometry x="260" y="3030" width="810" height="63" as="geometry" />
        </mxCell>
        <mxCell id="k2BrlGGkdURELfQeBrAu-2" value="&lt;font style=&quot;font-size: 24px;&quot; face=&quot;Verdana&quot;&gt;&amp;lt; Antwort 2 &amp;gt;&lt;/font&gt;" style="text;html=1;align=center;verticalAlign=middle;whiteSpace=wrap;rounded=0;" vertex="1" parent="1">
          <mxGeometry x="530" y="3046.5" width="270" height="30" as="geometry" />
        </mxCell>
        <mxCell id="k2BrlGGkdURELfQeBrAu-3" value="" style="whiteSpace=wrap;html=1;rounded=0;shadow=0;labelBackgroundColor=none;strokeWidth=1;fillColor=none;fontFamily=Verdana;fontSize=12;align=center;comic=1;" vertex="1" parent="1">
          <mxGeometry x="260" y="3110" width="810" height="63" as="geometry" />
        </mxCell>
        <mxCell id="k2BrlGGkdURELfQeBrAu-4" value="&lt;font style=&quot;font-size: 24px;&quot; face=&quot;Verdana&quot;&gt;&amp;lt; Antwort 3 &amp;gt;&lt;/font&gt;" style="text;html=1;align=center;verticalAlign=middle;whiteSpace=wrap;rounded=0;" vertex="1" parent="1">
          <mxGeometry x="530" y="3126.5" width="270" height="30" as="geometry" />
        </mxCell>
        <mxCell id="k2BrlGGkdURELfQeBrAu-5" value="" style="whiteSpace=wrap;html=1;rounded=0;shadow=0;labelBackgroundColor=none;strokeWidth=1;fillColor=none;fontFamily=Verdana;fontSize=12;align=center;comic=1;" vertex="1" parent="1">
          <mxGeometry x="260" y="3190" width="810" height="63" as="geometry" />
        </mxCell>
        <mxCell id="k2BrlGGkdURELfQeBrAu-6" value="&lt;font style=&quot;font-size: 24px;&quot; face=&quot;Verdana&quot;&gt;&amp;lt; Antwort 4 &amp;gt;&lt;/font&gt;" style="text;html=1;align=center;verticalAlign=middle;whiteSpace=wrap;rounded=0;" vertex="1" parent="1">
          <mxGeometry x="530" y="3206.5" width="270" height="30" as="geometry" />
        </mxCell>
        <mxCell id="k2BrlGGkdURELfQeBrAu-7" value="" style="whiteSpace=wrap;html=1;rounded=0;shadow=0;labelBackgroundColor=none;strokeWidth=1;fillColor=none;fontFamily=Verdana;fontSize=12;align=center;comic=1;" vertex="1" parent="1">
          <mxGeometry x="260" y="3661" width="810" height="130" as="geometry" />
        </mxCell>
        <mxCell id="k2BrlGGkdURELfQeBrAu-8" value="&lt;font style=&quot;font-size: 24px;&quot; face=&quot;Verdana&quot;&gt;&amp;lt; Frage 3 &amp;gt;&lt;/font&gt;" style="text;html=1;align=center;verticalAlign=middle;whiteSpace=wrap;rounded=0;" vertex="1" parent="1">
          <mxGeometry x="527.5" y="3711" width="270" height="30" as="geometry" />
        </mxCell>
        <mxCell id="k2BrlGGkdURELfQeBrAu-9" value="" style="whiteSpace=wrap;html=1;rounded=0;shadow=0;labelBackgroundColor=none;strokeWidth=1;fillColor=none;fontFamily=Verdana;fontSize=12;align=center;comic=1;" vertex="1" parent="1">
          <mxGeometry x="260" y="3808" width="400" height="63" as="geometry" />
        </mxCell>
        <mxCell id="k2BrlGGkdURELfQeBrAu-10" value="&lt;font style=&quot;font-size: 24px;&quot; face=&quot;Verdana&quot;&gt;&amp;lt; Antwort 1 &amp;gt;&lt;/font&gt;" style="text;html=1;align=center;verticalAlign=middle;whiteSpace=wrap;rounded=0;" vertex="1" parent="1">
          <mxGeometry x="330" y="3825" width="270" height="30" as="geometry" />
        </mxCell>
        <mxCell id="k2BrlGGkdURELfQeBrAu-11" value="" style="whiteSpace=wrap;html=1;rounded=0;shadow=0;labelBackgroundColor=none;strokeWidth=1;fillColor=none;fontFamily=Verdana;fontSize=12;align=center;comic=1;" vertex="1" parent="1">
          <mxGeometry x="260" y="3881" width="400" height="63" as="geometry" />
        </mxCell>
        <mxCell id="k2BrlGGkdURELfQeBrAu-12" value="&lt;font style=&quot;font-size: 24px;&quot; face=&quot;Verdana&quot;&gt;&amp;lt; Antwort 2 &amp;gt;&lt;/font&gt;" style="text;html=1;align=center;verticalAlign=middle;whiteSpace=wrap;rounded=0;" vertex="1" parent="1">
          <mxGeometry x="330" y="3896.5" width="270" height="30" as="geometry" />
        </mxCell>
        <mxCell id="k2BrlGGkdURELfQeBrAu-13" value="" style="whiteSpace=wrap;html=1;rounded=0;shadow=0;labelBackgroundColor=none;strokeWidth=1;fillColor=none;fontFamily=Verdana;fontSize=12;align=center;comic=1;" vertex="1" parent="1">
          <mxGeometry x="260" y="3961" width="400" height="63" as="geometry" />
        </mxCell>
        <mxCell id="k2BrlGGkdURELfQeBrAu-14" value="&lt;font style=&quot;font-size: 24px;&quot; face=&quot;Verdana&quot;&gt;&amp;lt; Antwort 3 &amp;gt;&lt;/font&gt;" style="text;html=1;align=center;verticalAlign=middle;whiteSpace=wrap;rounded=0;" vertex="1" parent="1">
          <mxGeometry x="330" y="3976.5" width="270" height="30" as="geometry" />
        </mxCell>
        <mxCell id="k2BrlGGkdURELfQeBrAu-15" value="" style="whiteSpace=wrap;html=1;rounded=0;shadow=0;labelBackgroundColor=none;strokeWidth=1;fillColor=none;fontFamily=Verdana;fontSize=12;align=center;comic=1;" vertex="1" parent="1">
          <mxGeometry x="260" y="4041" width="400" height="63" as="geometry" />
        </mxCell>
        <mxCell id="k2BrlGGkdURELfQeBrAu-16" value="&lt;font style=&quot;font-size: 24px;&quot; face=&quot;Verdana&quot;&gt;&amp;lt; Antwort 4 &amp;gt;&lt;/font&gt;" style="text;html=1;align=center;verticalAlign=middle;whiteSpace=wrap;rounded=0;" vertex="1" parent="1">
          <mxGeometry x="330" y="4056.5" width="270" height="30" as="geometry" />
        </mxCell>
        <mxCell id="k2BrlGGkdURELfQeBrAu-18" value="&lt;font style=&quot;font-size: 24px;&quot; face=&quot;Verdana&quot;&gt;&amp;lt; Erklärung 1 &amp;gt;&lt;/font&gt;" style="text;html=1;align=center;verticalAlign=middle;whiteSpace=wrap;rounded=0;" vertex="1" parent="1">
          <mxGeometry x="735" y="3825" width="270" height="30" as="geometry" />
        </mxCell>
        <mxCell id="k2BrlGGkdURELfQeBrAu-19" value="&lt;font style=&quot;font-size: 24px;&quot; face=&quot;Verdana&quot;&gt;&amp;lt;&amp;nbsp;&lt;/font&gt;&lt;span style=&quot;font-family: Verdana; font-size: 24px;&quot;&gt;Erklärung&amp;nbsp;&lt;/span&gt;&lt;font style=&quot;font-size: 24px;&quot; face=&quot;Verdana&quot;&gt;2 &amp;gt;&lt;/font&gt;" style="text;html=1;align=center;verticalAlign=middle;whiteSpace=wrap;rounded=0;" vertex="1" parent="1">
          <mxGeometry x="735" y="3896.5" width="270" height="30" as="geometry" />
        </mxCell>
        <mxCell id="k2BrlGGkdURELfQeBrAu-20" value="&lt;font style=&quot;font-size: 24px;&quot; face=&quot;Verdana&quot;&gt;&amp;lt;&amp;nbsp;&lt;/font&gt;&lt;span style=&quot;font-family: Verdana; font-size: 24px;&quot;&gt;Erklärung&amp;nbsp;&lt;/span&gt;&lt;font style=&quot;font-size: 24px;&quot; face=&quot;Verdana&quot;&gt;3 &amp;gt;&lt;/font&gt;" style="text;html=1;align=center;verticalAlign=middle;whiteSpace=wrap;rounded=0;" vertex="1" parent="1">
          <mxGeometry x="735" y="3976.5" width="270" height="30" as="geometry" />
        </mxCell>
        <mxCell id="k2BrlGGkdURELfQeBrAu-21" value="&lt;font style=&quot;font-size: 24px;&quot; face=&quot;Verdana&quot;&gt;&amp;lt;&amp;nbsp;&lt;/font&gt;&lt;span style=&quot;font-family: Verdana; font-size: 24px;&quot;&gt;Erklärung&amp;nbsp;&lt;/span&gt;&lt;font style=&quot;font-size: 24px;&quot; face=&quot;Verdana&quot;&gt;4 &amp;gt;&lt;/font&gt;" style="text;html=1;align=center;verticalAlign=middle;whiteSpace=wrap;rounded=0;" vertex="1" parent="1">
          <mxGeometry x="735" y="4056.5" width="270" height="30" as="geometry" />
        </mxCell>
        <mxCell id="k2BrlGGkdURELfQeBrAu-22" value="" style="whiteSpace=wrap;html=1;rounded=0;shadow=0;labelBackgroundColor=none;strokeWidth=1;fillColor=none;fontFamily=Verdana;fontSize=12;align=center;comic=1;" vertex="1" parent="1">
          <mxGeometry x="670" y="3808" width="400" height="63" as="geometry" />
        </mxCell>
        <mxCell id="k2BrlGGkdURELfQeBrAu-23" value="" style="whiteSpace=wrap;html=1;rounded=0;shadow=0;labelBackgroundColor=none;strokeWidth=1;fillColor=none;fontFamily=Verdana;fontSize=12;align=center;comic=1;" vertex="1" parent="1">
          <mxGeometry x="670" y="3881" width="400" height="63" as="geometry" />
        </mxCell>
        <mxCell id="k2BrlGGkdURELfQeBrAu-24" value="" style="whiteSpace=wrap;html=1;rounded=0;shadow=0;labelBackgroundColor=none;strokeWidth=1;fillColor=none;fontFamily=Verdana;fontSize=12;align=center;comic=1;" vertex="1" parent="1">
          <mxGeometry x="670" y="3961" width="400" height="63" as="geometry" />
        </mxCell>
        <mxCell id="k2BrlGGkdURELfQeBrAu-25" value="" style="whiteSpace=wrap;html=1;rounded=0;shadow=0;labelBackgroundColor=none;strokeWidth=1;fillColor=none;fontFamily=Verdana;fontSize=12;align=center;comic=1;" vertex="1" parent="1">
          <mxGeometry x="670" y="4041" width="400" height="63" as="geometry" />
        </mxCell>
        <mxCell id="k2BrlGGkdURELfQeBrAu-27" value="angezeigt, wenn alle Fragen ausgewertet" style="text;html=1;align=center;verticalAlign=middle;whiteSpace=wrap;rounded=0;dashed=1;fillColor=none;strokeColor=default;" vertex="1" parent="1">
          <mxGeometry x="700" y="4179" width="150" height="30" as="geometry" />
        </mxCell>
        <mxCell id="k2BrlGGkdURELfQeBrAu-30" value="&lt;span&gt;Richtige Antwort&lt;/span&gt;" style="text;html=1;points=[];align=left;verticalAlign=top;spacingTop=-4;fontSize=14;fontFamily=Verdana;fontStyle=0" vertex="1" parent="1">
          <mxGeometry x="510" y="7340" width="170" height="20" as="geometry" />
        </mxCell>
        <mxCell id="k2BrlGGkdURELfQeBrAu-31" value="&lt;span&gt;Begründung&lt;/span&gt;" style="text;html=1;points=[];align=left;verticalAlign=top;spacingTop=-4;fontSize=14;fontFamily=Verdana;fontStyle=0" vertex="1" parent="1">
          <mxGeometry x="670" y="7310" width="170" height="20" as="geometry" />
        </mxCell>
        <mxCell id="k2BrlGGkdURELfQeBrAu-33" value="&lt;span&gt;Begründung&lt;/span&gt;" style="text;html=1;points=[];align=left;verticalAlign=top;spacingTop=-4;fontSize=14;fontFamily=Verdana;fontStyle=0" vertex="1" parent="1">
          <mxGeometry x="670" y="7340" width="170" height="20" as="geometry" />
        </mxCell>
        <mxCell id="k2BrlGGkdURELfQeBrAu-34" value="Frage X" style="text;html=1;points=[];align=left;verticalAlign=top;spacingTop=-4;fontSize=14;fontFamily=Verdana;fontStyle=0;comic=0;fillColor=none;fillStyle=hatch;gradientColor=none;glass=0;rounded=0;" vertex="1" parent="1">
          <mxGeometry x="480" y="7391" width="170" height="20" as="geometry" />
        </mxCell>
        <mxCell id="k2BrlGGkdURELfQeBrAu-36" value="1x richting / 2x falsch" style="text;html=1;points=[];align=left;verticalAlign=top;spacingTop=-4;fontSize=14;fontFamily=Verdana;fontStyle=0;comic=0;fillColor=none;fillStyle=hatch;gradientColor=none;glass=0;rounded=0;" vertex="1" parent="1">
          <mxGeometry x="590" y="7390" width="170" height="20" as="geometry" />
        </mxCell>
        <mxCell id="k2BrlGGkdURELfQeBrAu-37" value="&lt;span&gt;Deine Antwort&lt;/span&gt;" style="text;html=1;points=[];align=left;verticalAlign=top;spacingTop=-4;fontSize=14;fontFamily=Verdana;fontStyle=0" vertex="1" parent="1">
          <mxGeometry x="510" y="7421" width="170" height="20" as="geometry" />
        </mxCell>
        <mxCell id="k2BrlGGkdURELfQeBrAu-38" value="&lt;span&gt;Richtige Antwort&lt;/span&gt;" style="text;html=1;points=[];align=left;verticalAlign=top;spacingTop=-4;fontSize=14;fontFamily=Verdana;fontStyle=0" vertex="1" parent="1">
          <mxGeometry x="510" y="7451" width="170" height="20" as="geometry" />
        </mxCell>
        <mxCell id="k2BrlGGkdURELfQeBrAu-39" value="&lt;span&gt;Begründung&lt;/span&gt;" style="text;html=1;points=[];align=left;verticalAlign=top;spacingTop=-4;fontSize=14;fontFamily=Verdana;fontStyle=0" vertex="1" parent="1">
          <mxGeometry x="670" y="7421" width="170" height="20" as="geometry" />
        </mxCell>
        <mxCell id="k2BrlGGkdURELfQeBrAu-40" value="&lt;span&gt;Begründung&lt;/span&gt;" style="text;html=1;points=[];align=left;verticalAlign=top;spacingTop=-4;fontSize=14;fontFamily=Verdana;fontStyle=0" vertex="1" parent="1">
          <mxGeometry x="670" y="7451" width="170" height="20" as="geometry" />
        </mxCell>
        <mxCell id="k2BrlGGkdURELfQeBrAu-41" value="" style="verticalLabelPosition=bottom;verticalAlign=top;html=1;shape=mxgraph.basic.x;fillColor=#a20025;fontColor=#ffffff;strokeColor=#6F0000;" vertex="1" parent="1">
          <mxGeometry x="545" y="7396" width="10" height="8" as="geometry" />
        </mxCell>
      </root>
    </mxGraphModel>
  </diagram>
  <diagram id="dF6sGBOXneh4yOKCTsUl" name="Page-4">
    <mxGraphModel dx="2940" dy="1230" grid="1" gridSize="10" guides="1" tooltips="1" connect="1" arrows="1" fold="1" page="1" pageScale="1" pageWidth="1100" pageHeight="850" math="0" shadow="0">
      <root>
        <mxCell id="0" />
        <mxCell id="1" parent="0" />
      </root>
    </mxGraphModel>
  </diagram>
</mxfile>
